<svg xmlns="http://www.w3.org/2000/svg" viewBox="0 0 478.1 323.75"><defs><style>.cls-1{fill:#231f20;}</style></defs><g id="Layer_1" data-name="Layer 1"><path class="cls-1" d="M234.37,84.34A74.15,74.15,0,0,1,223.73,143c-3.06,4.45-5.86,3.38-11.77,3.32-11.21-.11-22.42-.21-33.63-.21h-5.61c-7.5.44-8,.55-9.31-5.8a142.37,142.37,0,0,1-2.14-14.79,137.54,137.54,0,0,1,.45-28.9c1.25-10.35,3.83-20.9,10.6-29.51s18.51-15,30.51-13.84a33.6,33.6,0,0,1,21.42,11C229.5,70.07,232.54,77.16,234.37,84.34Z"/><path class="cls-1" d="M225.61,86.76a70.61,70.61,0,0,1,1.53,7.9l-.32-2.41a72.77,72.77,0,0,1,0,19.11l.32-2.41A75.76,75.76,0,0,1,222,127.57l.92-2.17A65.85,65.85,0,0,1,215.48,139l1.42-1.84a9.49,9.49,0,0,1-1.63,1.66l1.84-1.42a7.4,7.4,0,0,1-1.28.73l2.17-.92a7.59,7.59,0,0,1-1.62.43l2.41-.33c-2.72.35-5.58,0-8.32-.06l-12.36-.11q-11.15-.07-22.29-.08c-2.83,0-5.81.43-8.62.09l2.41.33a4.94,4.94,0,0,1-1.13-.29l2.17.92a3.06,3.06,0,0,1-.63-.37l1.84,1.42a2.79,2.79,0,0,1-.51-.52l1.42,1.84a5.61,5.61,0,0,1-.49-.86l.92,2.17a21.63,21.63,0,0,1-1.12-4.34c-.53-2.68-1-5.38-1.34-8.09l.32,2.41A138.36,138.36,0,0,1,171,95l-.33,2.42a71.65,71.65,0,0,1,4.48-17.67l-.92,2.17a45.59,45.59,0,0,1,5.66-9.87l-1.42,1.84a38.5,38.5,0,0,1,6.73-6.71l-1.83,1.42a38.72,38.72,0,0,1,8.44-4.92l-2.17.91a35.6,35.6,0,0,1,8.78-2.4l-2.42.32a32.37,32.37,0,0,1,8.05,0l-2.42-.32a32.4,32.4,0,0,1,8.18,2.27l-2.17-.92A35.94,35.94,0,0,1,215.14,68l-1.84-1.42A37,37,0,0,1,219.76,73l-1.42-1.83a44.39,44.39,0,0,1,5.44,9.48l-.91-2.17a61.62,61.62,0,0,1,2.74,8.27c1.19,4.6,6.56,7.83,11.18,6.34a9.26,9.26,0,0,0,6.34-11.17c-2.7-10.49-7.91-21-16.52-27.89a45.06,45.06,0,0,0-15.76-8.45,41.17,41.17,0,0,0-18-.81,42.47,42.47,0,0,0-14.73,5.51,44.52,44.52,0,0,0-11.84,10A57.4,57.4,0,0,0,157,76.46a69.71,69.71,0,0,0-3.56,14.08,147.81,147.81,0,0,0,1.47,53.55c1.11,5,4.09,9.54,9.32,10.8a22.2,22.2,0,0,0,6.24.45c2.19-.1,4.35-.12,6.54-.12q7.33,0,14.65,0,8.77,0,17.56.14c4.33,0,9.43.87,13.59-.68a17.55,17.55,0,0,0,8.33-6.56,54.42,54.42,0,0,0,4.27-6.95,88.72,88.72,0,0,0,6.81-16.48,82.57,82.57,0,0,0,2.39-35.12,71.34,71.34,0,0,0-1.5-7.68c-1.16-4.61-6.58-7.84-11.17-6.35A9.28,9.28,0,0,0,225.61,86.76Z"/><path class="cls-1" d="M217,178.17c-1.23-2.55-4.61-2-9.43-2.06-5.8,0-11.6.15-17.4.23-4.4.06-14.44-1.79-18.23-.18-7.61,3.24-4.22,20.42-2.38,25.77,1.37,3.95,3.61,7.9,7.6,10.17,3.59,2,8.1,2.46,12.42,2.71a50.92,50.92,0,0,0,11.84-.31c3.89-.68,7.7-2.28,10.15-5,3-3.29,3.58-7.69,4.05-11.83.62-5.48,1.92-11.21,1.9-16.71A6.48,6.48,0,0,0,217,178.17Z"/><path class="cls-1" d="M224.81,173.59C221,166.33,212.48,167,205.54,167c-5.95,0-12,.55-17.93.14-4.35-.31-8.8-1.08-13.17-.65-3,.3-5.87.78-8.41,2.56a17.66,17.66,0,0,0-6.46,8.59c-1.54,4-1.7,8.64-1.37,12.88a63.39,63.39,0,0,0,2.1,12.31,37.77,37.77,0,0,0,3,7.44,25.89,25.89,0,0,0,7.57,8.55c5.84,4.33,13.56,4.83,20.56,5.16,7.75.36,16.53-.32,23-5.1a24.59,24.59,0,0,0,5.72-5.75,22.61,22.61,0,0,0,2.87-6.06c1.2-3.6,1.37-7.49,1.86-11.23l-.32,2.41c.55-4,1.23-8,1.67-12a46.66,46.66,0,0,0,.32-4.87,18.3,18.3,0,0,0-1.75-7.85c-.85-2-3.48-3.64-5.43-4.18a9.1,9.1,0,0,0-11.18,6.35l-.32,2.41a9.13,9.13,0,0,0,1.24,4.59l.12.27-.92-2.17a7.26,7.26,0,0,1,.32,1.3l-.32-2.42a37.07,37.07,0,0,1-.51,8.67l.33-2.42c-.62,4.56-1.28,9.1-1.88,13.65l.32-2.41a25.36,25.36,0,0,1-1.48,6.14l.92-2.17a14.4,14.4,0,0,1-1.8,3.11l1.43-1.84a14.16,14.16,0,0,1-2.22,2.16l1.84-1.42a18.29,18.29,0,0,1-3.4,2l2.17-.92a25,25,0,0,1-6.47,1.7l2.41-.32a63,63,0,0,1-15.21-.32l2.41.33a25.12,25.12,0,0,1-6.16-1.57l2.17.92a15.94,15.94,0,0,1-3.14-1.84l1.84,1.42a16.16,16.16,0,0,1-2.68-2.74l1.42,1.84a22.34,22.34,0,0,1-2.6-4.59l.91,2.17a43.13,43.13,0,0,1-2.6-10.45l.32,2.42a36.35,36.35,0,0,1-.21-9.26l-.33,2.41a16.23,16.23,0,0,1,1-3.88l-.92,2.17a9.86,9.86,0,0,1,1.1-1.95l-1.42,1.84a6.82,6.82,0,0,1,1.19-1.21l-1.84,1.42a6.72,6.72,0,0,1,1.29-.76l-2.17.92a8.7,8.7,0,0,1,2-.5l-2.42.32c5.37-.67,10.75.69,16.12.68,4.26,0,8.52-.17,12.78-.22,2.07,0,4.14,0,6.21,0a39.15,39.15,0,0,1,4.72.11l-2.42-.32a7.38,7.38,0,0,1,1.54.38l-2.17-.91a4.33,4.33,0,0,1,.81.46l-1.84-1.42a3.7,3.7,0,0,1,.49.48l-1.42-1.83a4.33,4.33,0,0,1,.39.62A9.17,9.17,0,0,0,221.55,186,9.3,9.3,0,0,0,224.81,173.59Z"/><path class="cls-1" d="M243.87,239.53a74.12,74.12,0,0,1,10.36-58.72c3-4.46,5.84-3.4,11.75-3.36,11.21.07,22.42.13,33.63.09h1.3l3.88,0h.43c7.49-.47,8-.57,9.34,5.77a140.15,140.15,0,0,1,2.21,14.78,137.63,137.63,0,0,1-.3,28.91c-1.2,10.35-3.73,20.9-10.46,29.54s-18.44,15-30.44,14a33.73,33.73,0,0,1-21.47-10.91C248.81,253.78,245.74,246.7,243.87,239.53Z"/><path class="cls-1" d="M252.63,237.11a76,76,0,0,1-1.63-8.35l.33,2.42a72.92,72.92,0,0,1,0-18.67l-.32,2.42a76,76,0,0,1,5.19-19.07L255.3,198a64.56,64.56,0,0,1,7.18-13.19l-1.42,1.83a9.43,9.43,0,0,1,1.62-1.66l-1.84,1.42a7,7,0,0,1,1.27-.73l-2.17.91a8.23,8.23,0,0,1,1.62-.43l-2.41.33c2.72-.35,5.58,0,8.32,0l12.36.07q11.15,0,22.29,0c2.83,0,5.81-.46,8.62-.13l-2.41-.32a5,5,0,0,1,1.14.28l-2.17-.92a3.46,3.46,0,0,1,.62.36l-1.83-1.42a4.18,4.18,0,0,1,.51.52l-1.42-1.84a5.22,5.22,0,0,1,.56,1l-.91-2.17a27.94,27.94,0,0,1,1.2,4.87q.81,4.14,1.38,8.33l-.33-2.41a138,138,0,0,1,.05,36.21l.32-2.41A70.28,70.28,0,0,1,303,244.27l.92-2.17a45.18,45.18,0,0,1-5.71,9.84l1.42-1.84a38.17,38.17,0,0,1-6.44,6.39l1.84-1.42a39.46,39.46,0,0,1-8.43,5l2.17-.92a35.54,35.54,0,0,1-8.76,2.44l2.41-.33a31.82,31.82,0,0,1-8,0l2.42.33a32.74,32.74,0,0,1-8.19-2.25l2.17.92a36.47,36.47,0,0,1-7.52-4.38l1.84,1.42a37.14,37.14,0,0,1-6.49-6.47l1.42,1.84a44.78,44.78,0,0,1-5.65-9.85l.92,2.17a62.1,62.1,0,0,1-2.63-7.87c-1.21-4.6-6.54-7.84-11.17-6.34a9.25,9.25,0,0,0-6.34,11.17c2.75,10.47,8,21,16.63,27.83a45,45,0,0,0,15.79,8.42,41.36,41.36,0,0,0,18,.76,42.52,42.52,0,0,0,14.7-5.55,44.52,44.52,0,0,0,11.8-10,57,57,0,0,0,9.16-16.22,69.54,69.54,0,0,0,3.49-14.08A147.74,147.74,0,0,0,323,179.54c-1.13-5-4.09-9.56-9.34-10.8a22.17,22.17,0,0,0-6.24-.44c-2.18.12-4.35.14-6.54.15q-7.34,0-14.65,0-8.77,0-17.56-.08c-4.33,0-9.44-.84-13.59.71a17.67,17.67,0,0,0-8.32,6.58,54.25,54.25,0,0,0-4.23,7,89.45,89.45,0,0,0-6.75,16.51,86,86,0,0,0-3.07,17.59,81.66,81.66,0,0,0,.84,17.53,69.12,69.12,0,0,0,1.54,7.68c1.18,4.6,6.56,7.84,11.17,6.35A9.27,9.27,0,0,0,252.63,237.11Z"/><path class="cls-1" d="M263.16,144.86c1.2,2.55,4.59,2,9.41,2.13,5.8.09,11.6-.06,17.4-.09,4.4,0,14.42,1.91,18.22.33,7.65-3.18,4.46-20.39,2.68-25.75-1.32-4-3.52-7.93-7.48-10.23-3.58-2.08-8.08-2.53-12.4-2.82a51.49,51.49,0,0,0-11.84.22c-3.9.65-7.73,2.22-10.21,4.9-3,3.27-3.66,7.66-4.18,11.8-.68,5.47-2,11.19-2.08,16.69A6.48,6.48,0,0,0,263.16,144.86Z"/><path class="cls-1" d="M255.31,149.44c3.74,7.26,12.36,6.61,19.24,6.66,6,0,12-.46,17.94,0,4.31.34,8.69,1.12,13,.76,3-.25,6-.76,8.57-2.54a16.06,16.06,0,0,0,5.58-6.4A30.72,30.72,0,0,0,322.07,133a63.32,63.32,0,0,0-2-12.47c-1.49-5.46-4.28-11.15-8.78-14.74a26,26,0,0,0-11-5.33,74.52,74.52,0,0,0-10.74-1.23c-7.77-.45-16.61,0-23.2,4.7a21.73,21.73,0,0,0-4.62,4.09,24.84,24.84,0,0,0-4.17,7.39c-1.31,3.43-1.54,7.22-2,10.82l.32-2.41c-.58,4.14-1.32,8.25-1.85,12.4a48.25,48.25,0,0,0-.42,5.1,22.72,22.72,0,0,0,.37,4.34,16,16,0,0,0,1.33,3.75c.83,1.94,3.51,3.64,5.43,4.18a9.34,9.34,0,0,0,7-.92,9.18,9.18,0,0,0,4.18-5.43l.32-2.41a9,9,0,0,0-1.24-4.59l-.11-.27.91,2.17a8,8,0,0,1-.3-1.31l.32,2.42a34.57,34.57,0,0,1,.47-7.73L272,138c.64-4.59,1.42-9.16,2-13.75l-.32,2.41a27.26,27.26,0,0,1,1.71-7.07l-.91,2.17a14.93,14.93,0,0,1,1.55-2.68l-1.42,1.84a13.62,13.62,0,0,1,2.16-2.2l-1.84,1.42a17.38,17.38,0,0,1,3.73-2.17l-2.17.92a24.54,24.54,0,0,1,6-1.59l-2.42.32a62.28,62.28,0,0,1,15.25.32l-2.41-.32a26.29,26.29,0,0,1,6.19,1.51l-2.17-.92a15.62,15.62,0,0,1,3.19,1.79l-1.84-1.42a16.54,16.54,0,0,1,2.73,2.69l-1.42-1.83a21.83,21.83,0,0,1,2.64,4.56l-.92-2.17a41.26,41.26,0,0,1,2.56,10.26l-.32-2.41a37.47,37.47,0,0,1,.18,9.81l.32-2.41a16.11,16.11,0,0,1-1,3.87l.92-2.17a10.09,10.09,0,0,1-1.12,1.94l1.42-1.83a8,8,0,0,1-1.2,1.2l1.84-1.42a6.7,6.7,0,0,1-1.3.74l2.17-.91a8.66,8.66,0,0,1-2,.48l2.41-.32c-5.38.62-10.74-.78-16.1-.81-4.27,0-8.53.1-12.79.11-2.07,0-4.14,0-6.21,0a37.22,37.22,0,0,1-4.72-.15l2.42.32a7.31,7.31,0,0,1-1.53-.39l2.17.92a5.08,5.08,0,0,1-.81-.48l1.84,1.43a5.66,5.66,0,0,1-.49-.49l1.42,1.83a6.41,6.41,0,0,1-.38-.62c-2.18-4.23-8.46-5.82-12.43-3.26A9.32,9.32,0,0,0,255.31,149.44Z"/></g></svg>