<svg xmlns="http://www.w3.org/2000/svg" viewBox="0 0 974.92 435.77"><defs><style>.cls-1{fill:#fff;}.cls-2{fill:#231f20;}.cls-3{fill:#1e292f;}</style></defs><g id="Layer_1" data-name="Layer 1"><path class="cls-1" d="M436.5,120.28A148.08,148.08,0,0,1,449,63.37a71.42,71.42,0,0,0-34.16-12.9c-7.54-.74-15.53-.15-23.11,5.16S377,71.81,375.06,84.43a45,45,0,0,0,2.84,24.3,34.2,34.2,0,0,0,11.77,14.4c13.72,9.81,31.1,9.2,47.07-1.64"/><path class="cls-1" d="M444.47,120.28a147.86,147.86,0,0,1,1.28-17l-.28,2.11a147.93,147.93,0,0,1,10.15-37.57l-.8,1.91c.34-.8.68-1.6,1-2.39.86-1.93,1.49-4,.8-6.14A8.93,8.93,0,0,0,453,56.49a79.17,79.17,0,0,0-40.53-14.17,40.84,40.84,0,0,0-22,4.7c-6,3.28-10.69,8.27-14.51,13.82a55.29,55.29,0,0,0-8.05,42.77,44.05,44.05,0,0,0,10,19.61,45.51,45.51,0,0,0,17,11.71c15.23,6.28,32.59,2.39,45.89-6.55a8.52,8.52,0,0,0,3.66-4.77,8.12,8.12,0,0,0-.8-6.14c-2.22-3.44-7.21-5.35-10.91-2.86a55.75,55.75,0,0,1-9.47,5.18l1.91-.81A45.11,45.11,0,0,1,414,122.06l2.12-.29a39,39,0,0,1-9.78,0l2.12.28a36.92,36.92,0,0,1-9.34-2.53l1.91.8a39.52,39.52,0,0,1-8.45-4.94l1.61,1.24a36.25,36.25,0,0,1-6.26-6.18l1.24,1.61a35.68,35.68,0,0,1-4.53-7.73l.8,1.9a42.47,42.47,0,0,1-2.83-10.7l.28,2.12a48.76,48.76,0,0,1,0-12.31l-.28,2.12A48.31,48.31,0,0,1,386,75.28l-.8,1.9A47.72,47.72,0,0,1,391,67.06l-1.24,1.61A37.09,37.09,0,0,1,396.32,62l-1.61,1.25a31,31,0,0,1,6.57-3.82l-1.9.81a31.4,31.4,0,0,1,7.63-2l-2.12.29a48.28,48.28,0,0,1,12.48.24l-2.12-.28A71.23,71.23,0,0,1,433,63.34l-1.91-.8A77.45,77.45,0,0,1,445,70.25l-2.86-10.9a158.41,158.41,0,0,0-12.74,47.79c-.47,4.36-.75,8.75-.82,13.14-.07,4.17,3.72,8.16,8,8a8.11,8.11,0,0,0,8-8Z"/><path class="cls-1" d="M477.34,78.94c-4,16-8.23,32.3-14.22,47.16l13.72,6.37c2.8,1.3,5.8,2.59,8.9,1.05,2.54-1.27,4.83-4.34,6.57-7.87a73,73,0,0,0,4.15-11.52c1.28-4.36,2.53-9,2.42-13.38A21.57,21.57,0,0,0,494.93,89c-4.56-6.66-10.86-10.24-17.59-10"/><path class="cls-1" d="M469.65,76.82c-4,15.93-8.08,31.9-14.21,47.16l-.29,2.12a6,6,0,0,0,.69,3.07A7.35,7.35,0,0,0,459.1,133l10.62,4.93c4.13,1.92,8.28,4.24,13,4.28,9.9.09,15.34-9.24,18.57-17.26a98.94,98.94,0,0,0,3.29-10,56.13,56.13,0,0,0,2.28-12.31c.45-8.2-3-15.8-8.27-21.88A27.72,27.72,0,0,0,477.34,71c-4.17.11-8.17,3.59-8,8s3.5,8.08,8,8a20.12,20.12,0,0,1,2.8.13L478,86.75A19.4,19.4,0,0,1,482.75,88l-1.91-.8A21.22,21.22,0,0,1,485.52,90l-1.61-1.24a26.65,26.65,0,0,1,4.4,4.48l-1.25-1.61a26.59,26.59,0,0,1,3.27,5.47l-.81-1.9a22,22,0,0,1,1.51,5.46l-.29-2.12a25.63,25.63,0,0,1-.08,6.37l.28-2.12a66.94,66.94,0,0,1-2.29,9.67,87.36,87.36,0,0,1-3.11,9.07l.8-1.9a31.06,31.06,0,0,1-3.53,6.32l1.25-1.61a15.86,15.86,0,0,1-2.57,2.67l1.61-1.25a9.64,9.64,0,0,1-1.82,1.09l1.9-.81a8.14,8.14,0,0,1-1.76.46l2.12-.29a9,9,0,0,1-1.72,0l2.12.28a14.05,14.05,0,0,1-3.36-1l1.9.81c-5.17-2.21-10.23-4.72-15.33-7.09l3.66,9C476.94,113,481,97,485,81.06c1-4-1.3-8.83-5.56-9.8s-8.73,1.24-9.81,5.56Z"/><path class="cls-1" d="M738.66,276.33C729.6,284.25,720,291.78,709,296.19s-23.63,5.43-34.38.39c-15.68-7.36-24.12-25.75-27.45-43.55-3.77-20.14-1.39-43.91,13.87-56.61,13.55-11.29,33.76-10.08,48.76-1.07s25.59,24.42,34,40.36,15.08,32.93,24.81,48,23.21,28.45,40,32.83c24,6.26,42-5,53.05-28.4,6-12.67,4.5-29.49-.32-42.36-5-13.33-14.62-24.74-26-33.19-9.49-7.06-20.15-12.34-31.09-16.76-10.5-4.23-21.07-8.17-31.45-12.43-24.14-9.89-48.25-19.93-72.85-28.66q-8.48-3-17-5.79c-2.37-.77-4.74-1.52-7.15-2.14"/><path class="cls-1" d="M717.07,254.73c-3,2.61-6,5.17-9.16,7.6l6.18-4.77a89.88,89.88,0,0,1-19.3,11.76l7.29-3.07a54.7,54.7,0,0,1-13.75,3.84l8.12-1.09a44.37,44.37,0,0,1-11.57,0l8.12,1.09a37.16,37.16,0,0,1-9.07-2.46l7.3,3.08a37.1,37.1,0,0,1-7.79-4.57l6.18,4.77a43.73,43.73,0,0,1-7.72-7.78l4.78,6.19a62.44,62.44,0,0,1-7.83-13.7l3.08,7.29a90.69,90.69,0,0,1-6.06-22.7l1.09,8.11a84.36,84.36,0,0,1-.17-22.11l-1.09,8.12a59,59,0,0,1,3.93-14.84l-3.08,7.3a43.37,43.37,0,0,1,5.36-9.26l-4.78,6.18a37.45,37.45,0,0,1,6.39-6.44l-6.18,4.77a35.54,35.54,0,0,1,7.68-4.48l-7.3,3.08a39.14,39.14,0,0,1,9.55-2.58l-8.12,1.1a45,45,0,0,1,11.88.06l-8.12-1.09a50.61,50.61,0,0,1,12.36,3.4l-7.3-3.08a56.73,56.73,0,0,1,12.31,7.27L694.1,221a82.54,82.54,0,0,1,14.58,14.83l-4.78-6.18c9.51,12.33,16.15,26.46,22.82,40.44,3.56,7.44,7.15,14.88,11.24,22a162.61,162.61,0,0,0,17.41,24.53,86.07,86.07,0,0,0,7.37,7.67q1.93,1.77,4,3.41c3.29,2.6,6.58,5.27,10.06,7.63a57.22,57.22,0,0,0,9,5c5.42,2.38,10.8,4.82,16.59,6.12,1.54.35,3.1.62,4.66.83,4.07.57,8.18,1.29,12.3,1.46,5.46.23,11-.7,16.35-1.55a37.26,37.26,0,0,0,7.88-2.16c4.84-1.91,9.87-3.82,14.25-6.71,3.24-2.13,6.27-4.62,9.29-7a42.44,42.44,0,0,0,3.19-2.81,101.63,101.63,0,0,0,10.41-12.64,66.76,66.76,0,0,0,5.23-8.25c.81-1.5,1.58-3,2.28-4.57A98.6,98.6,0,0,0,893,291.14a45.09,45.09,0,0,0,1.23-5.23,132.19,132.19,0,0,0,1.68-13.14,60.21,60.21,0,0,0-.28-11.07,120.34,120.34,0,0,0-3.11-18.47A114.3,114.3,0,0,0,886,226.28a68.62,68.62,0,0,0-5.32-9.46c-2.39-3.56-5.1-6.9-7.73-10.27-1.12-1.43-2.28-2.83-3.5-4.18a82.18,82.18,0,0,0-7.78-7.61,161.33,161.33,0,0,0-14.91-11.39,136.76,136.76,0,0,0-21.28-11.48c-10.18-4.47-20.54-8.48-30.9-12.52-16.49-6.43-32.77-13.35-49.2-19.91s-32.77-12.8-49.46-18.37c-4-1.32-7.94-2.68-12-3.73a23.26,23.26,0,0,0-12.18-.55,22.79,22.79,0,0,0-11.35,3.63,23,23,0,0,0-8.57,7.87,23,23,0,0,0-5.47,10.38l-1.09,8.12a30.5,30.5,0,0,0,4.17,15.42l4.77,6.18a30.63,30.63,0,0,0,13.48,7.85c8.73,2.27,17.29,5.47,25.78,8.51,8.68,3.1,17.3,6.36,25.88,9.72,17.17,6.71,34.13,13.92,51.25,20.74,9.61,3.83,19.34,7.4,28.88,11.42l-7.3-3.08c10.26,4.35,20.2,9.55,29,16.36L815,235.16a84.1,84.1,0,0,1,14.83,14.74l-4.78-6.18A70,70,0,0,1,834,259l-3.08-7.29a68.07,68.07,0,0,1,4.57,16.94l-1.09-8.12a60.54,60.54,0,0,1,.11,15.51l1.09-8.11a44,44,0,0,1-2.82,10.71l3.07-7.29A67.23,67.23,0,0,1,827.25,286l4.77-6.18a49.81,49.81,0,0,1-8.59,8.7l6.18-4.77a40.14,40.14,0,0,1-8.87,5.22l7.29-3.08a38.51,38.51,0,0,1-9.65,2.6l8.12-1.09a44.37,44.37,0,0,1-11.34-.06l8.12,1.09a52.68,52.68,0,0,1-13.09-3.5l7.3,3.08a59.85,59.85,0,0,1-13.13-7.75l6.18,4.77a85.25,85.25,0,0,1-14.85-15.1l4.77,6.18c-16.06-20.81-23.6-46.57-37.71-68.58A157.65,157.65,0,0,0,747.21,187a81.24,81.24,0,0,0-6.24-6.21,129.85,129.85,0,0,0-12.75-9.91,54.14,54.14,0,0,0-7.68-4.41,100.82,100.82,0,0,0-14.75-5.85A99.28,99.28,0,0,0,689.91,158a43.93,43.93,0,0,0-8.19-.18,81.59,81.59,0,0,0-15.91,2.42,71.59,71.59,0,0,0-14.61,6,68.92,68.92,0,0,0-12.56,9.22c-3.75,3.32-6.7,7.52-9.69,11.5a42.56,42.56,0,0,0-4.05,6.61c-1.66,3.35-3,6.86-4.44,10.32-.53,1.31-1,2.64-1.43,4a59.77,59.77,0,0,0-1.85,7.69,146.53,146.53,0,0,0-2,15.76,86.42,86.42,0,0,0,.62,16.63c1,8.05,2.09,16,4.5,23.75a153,153,0,0,0,5.85,14.91,68.57,68.57,0,0,0,3.71,7.49,108.46,108.46,0,0,0,9,12.5,44.92,44.92,0,0,0,5.33,5.7c8.11,7.23,16.94,12.66,27.49,15.64a36.9,36.9,0,0,0,4.17.92,111.55,111.55,0,0,0,12.8,1.56c5.71.23,11.55-.76,17.13-1.66a52.48,52.48,0,0,0,9.24-2.39,116.84,116.84,0,0,0,16-7c7.83-4.18,14.85-9.76,21.75-15.28,2.53-2,5-4.11,7.43-6.24a22.79,22.79,0,0,0,6.31-9.83,27.63,27.63,0,0,0,0-23.53,22.85,22.85,0,0,0-6.31-9.83L754.08,250a30.5,30.5,0,0,0-15.42-4.17l-8.12,1.1a30.44,30.44,0,0,0-13.47,7.85Z"/><path class="cls-2" d="M498,268.39a34,34,0,0,0,21.6-8.94,22.91,22.91,0,0,0,6.31-9.83,23,23,0,0,0,2.63-11.77l-1.09-8.12a30.54,30.54,0,0,0-7.85-13.47l-6.18-4.78A30.5,30.5,0,0,0,498,207.31a33.95,33.95,0,0,0-21.6,8.95,22.91,22.91,0,0,0-6.31,9.82,23,23,0,0,0-2.63,11.77l1.09,8.12a30.57,30.57,0,0,0,7.85,13.48l6.19,4.77A30.24,30.24,0,0,0,498,268.39Z"/><path class="cls-1" d="M427.39,272.82c16.74,8.18,36.91,1.08,50.31-10.35,11.54-9.84,19.53-23.23,25.59-37.14,3.11-7.13,5.78-14.51,9.83-21.16s9.7-12.65,17-15.4c9.43-3.57,19.95-1.22,29.74,1.23,8.72,2.18,17.53,4.44,25.47,8.64s15.08,10.59,18.44,18.93c5.09,12.67.79,27.35,4.43,40.51,2,7.15,6.3,14,5.59,21.34-.63,6.63-5.4,12.33-11.17,15.65s-12.47,4.62-19.06,5.52c-19.33,2.65-39.54,2.27-57.68-4.9s-34-21.93-39-40.78c-4.09-15.4-.88-32.18-6-47.26-6.15-18-24.85-30.83-43.88-30.36S400,191.34,394.15,209.44c-8.16,25.09,8.21,55.53,33.24,63.38"/><path class="cls-1" d="M412,299.19c3,1.46,6.17,2.71,9.29,4,.84.35,1.7.67,2.57.94a34.86,34.86,0,0,0,5.06,1.22c5.88,1,11.88,1.94,17.86,1.41A121.73,121.73,0,0,0,459.64,305a48.31,48.31,0,0,0,4.91-1.24c1.68-.51,3.34-1.11,5-1.78,3.94-1.63,8-3.19,11.74-5.14a62.89,62.89,0,0,0,8.73-5.46,118,118,0,0,0,14-11.68,143.53,143.53,0,0,0,11.67-14.23,101.22,101.22,0,0,0,6.13-9.19c5.73-9.64,9.8-20.08,14.14-30.39l-3.08,7.29c2.67-6.31,5.53-12.6,9.72-18.07l-4.77,6.18a38.9,38.9,0,0,1,6.84-6.91l-6.19,4.77a29.67,29.67,0,0,1,6.33-3.69l-7.29,3.08a28.7,28.7,0,0,1,6.76-1.79l-8.12,1.09a43.15,43.15,0,0,1,11.18.15l-8.12-1.09A147.8,147.8,0,0,1,556,220.52a118.21,118.21,0,0,1,16.31,5.24l-7.3-3.08a54.7,54.7,0,0,1,12.11,6.94l-6.18-4.78a40.72,40.72,0,0,1,7.08,7l-4.78-6.18a32.41,32.41,0,0,1,4,6.92l-3.08-7.3a37.24,37.24,0,0,1,2.35,9.11l-1.09-8.12c1.07,8.42.06,16.93,1,25.36a106.89,106.89,0,0,0,2.08,13.68,51.46,51.46,0,0,0,2,6.15c1.47,3.87,3.1,7.71,3.68,11.83l-1.09-8.12a19.07,19.07,0,0,1,0,4.95l1.09-8.12a18.42,18.42,0,0,1-1.22,4.29l3.08-7.3a21.64,21.64,0,0,1-2.46,4.18l4.77-6.18a25.13,25.13,0,0,1-4.56,4.54l6.19-4.77a30.32,30.32,0,0,1-6.41,3.65l7.3-3.08A63.36,63.36,0,0,1,575,271.2l8.12-1.09a137.32,137.32,0,0,1-35.83.48l8.12,1.09a90.68,90.68,0,0,1-23.12-6.14l7.3,3.08a74,74,0,0,1-16-9.4l6.18,4.78a66.93,66.93,0,0,1-11.54-11.46l4.78,6.18a56.73,56.73,0,0,1-7.43-12.61l3.08,7.3a56.72,56.72,0,0,1-3.73-14.12l1.09,8.12c-.64-4.79-.86-9.62-1.07-14.44-.26-6.2-.75-12.3-1.58-18.47-.78-5.85-1.57-11.65-3.81-17.16-2.46-6-4.77-11.89-8.71-17.08s-7.56-10.13-12.55-14.16-9.88-8-15.62-10.73a115.84,115.84,0,0,0-12.29-5.13,46.13,46.13,0,0,0-5.56-1.52,109,109,0,0,0-13.45-1.85,42.74,42.74,0,0,0-5.77-.06,104.26,104.26,0,0,0-13.65,1.79,44.54,44.54,0,0,0-5.56,1.45A113.65,113.65,0,0,0,404,155.11a48.62,48.62,0,0,0-5.08,2.73,114.69,114.69,0,0,0-10.76,8,50.72,50.72,0,0,0-4.32,3.83A48.92,48.92,0,0,0,380,174a111.15,111.15,0,0,0-7.87,10.61,44.07,44.07,0,0,0-2.7,5.08,107.54,107.54,0,0,0-5,12.3,42.09,42.09,0,0,0-1.24,5.16,119.21,119.21,0,0,0-1.68,13c-.39,6.2.65,12.42,1.59,18.52A53.2,53.2,0,0,0,365.86,249a100,100,0,0,0,7.57,16.66c.95,1.59,2,3.12,3.08,4.61,2.54,3.42,5.1,6.89,7.95,10.07,4.05,4.53,8.92,8.12,13.77,11.76a47,47,0,0,0,9.1,5.36,117.77,117.77,0,0,0,11.94,4.83,23.16,23.16,0,0,0,12.18.55,22.79,22.79,0,0,0,11.35-3.63,23.08,23.08,0,0,0,8.57-7.86,23.09,23.09,0,0,0,5.47-10.39l1.09-8.12a30.44,30.44,0,0,0-4.17-15.41L449,251.22a30.54,30.54,0,0,0-13.47-7.85c-1.37-.44-2.72-.93-4-1.49l7.29,3.08a48.52,48.52,0,0,1-10.23-6l6.18,4.78a54.41,54.41,0,0,1-9.63-9.67l4.78,6.18a57.54,57.54,0,0,1-7.25-12.44l3.08,7.3a54.25,54.25,0,0,1-3.79-13.8L423,229.4a48.66,48.66,0,0,1,0-12.53L421.9,225a44.42,44.42,0,0,1,3-10.81l-3.08,7.29a47.25,47.25,0,0,1,6-10.22L423,217.43a49.87,49.87,0,0,1,8.66-8.64l-6.19,4.77a49.93,49.93,0,0,1,10.86-6.36l-7.3,3.08a46.64,46.64,0,0,1,11.4-3.16l-8.12,1.09a43.27,43.27,0,0,1,11.14,0l-8.12-1.09a46.36,46.36,0,0,1,11.78,3.22l-7.3-3.08a49,49,0,0,1,10.56,6.17l-6.18-4.77a47.82,47.82,0,0,1,8.41,8.35l-4.78-6.18a44.5,44.5,0,0,1,5.64,9.57l-3.08-7.29a54.07,54.07,0,0,1,3.48,13.6l-1.09-8.12c1,7.94.9,15.95,1.56,23.91a127.29,127.29,0,0,0,2.82,19.46c1.37,5.67,3.81,11.08,6.2,16.36a55.67,55.67,0,0,0,4.78,8.44c2.34,3.41,4.94,6.66,7.53,9.87,1,1.24,2.06,2.45,3.15,3.61a67.65,67.65,0,0,0,7.41,6.75,129.08,129.08,0,0,0,14,10.13A129.13,129.13,0,0,0,516,324.44a86.15,86.15,0,0,0,11,3.74,97,97,0,0,0,11.73,2.34,187.63,187.63,0,0,0,19.63,2.05,147.94,147.94,0,0,0,24.08-1.29c6.41-.83,13-1.46,19.3-3.15a70.39,70.39,0,0,0,9.09-3.38,52.93,52.93,0,0,0,8.35-4c2.77-1.78,5.3-3.94,7.89-6,.7-.55,1.38-1.12,2-1.73a22.21,22.21,0,0,0,1.58-1.64c2.2-2.53,4.25-5.24,6.18-8a20.25,20.25,0,0,0,1.28-2.07,86.18,86.18,0,0,0,4-9.32,17,17,0,0,0,.72-2.3,81,81,0,0,0,1.44-10.15,17.63,17.63,0,0,0,.08-2.72A90.17,90.17,0,0,0,643,266.27a34,34,0,0,0-1.43-5.32c-1.26-3.68-2.9-7.23-3.94-11a41.76,41.76,0,0,1-1.1-5.54l1.09,8.12c-.71-5.6-.52-11.25-.58-16.88a82.75,82.75,0,0,0-.44-8.48c-.59-5.1-1.05-10.7-2.67-15.69a104.54,104.54,0,0,0-4.26-10.4,33.05,33.05,0,0,0-1.79-3.38,73.81,73.81,0,0,0-9-11.65c-3.34-3.58-7.46-6.5-11.34-9.42a50.36,50.36,0,0,0-6.34-4.09A126.84,126.84,0,0,0,586.38,166c-2.7-1.05-5.45-1.94-8.23-2.75-5.55-1.63-11.19-3.07-16.84-4.26a141.55,141.55,0,0,0-16.24-2.38,40.81,40.81,0,0,0-8.7.07,92.89,92.89,0,0,0-11.61,1.76c-3.76,1-7.51,2.82-11,4.32-4.62,2-8.39,5.29-12.33,8.38a38.93,38.93,0,0,0-5.85,5.7,97.19,97.19,0,0,0-9.44,12.9c-4.6,7.87-7.72,16.59-11.25,24.95l3.08-7.3c-4.22,10-9.2,19.62-15.83,28.21l4.78-6.18a75.93,75.93,0,0,1-13.2,13.37l6.18-4.78a62.86,62.86,0,0,1-13.4,7.88l7.29-3.08a52.64,52.64,0,0,1-13.08,3.69l8.12-1.09a41.37,41.37,0,0,1-10.72.08l8.12,1.1a36.57,36.57,0,0,1-8.95-2.4l7.3,3.08c-.61-.26-1.21-.53-1.81-.82a22.79,22.79,0,0,0-11.35-3.63,23.26,23.26,0,0,0-12.18.55,34.14,34.14,0,0,0-18.25,14l-3.08,7.29a30.65,30.65,0,0,0,0,16.24l3.08,7.3a30.64,30.64,0,0,0,11,10.95Z"/><path class="cls-1" d="M839.06,235.87c-16.18,4.23-30.15,17-36.48,33.28l17.18-2.76c-8.1-18-18.62-38.16-37.1-42.2-12.11-2.65-24.39,2.57-35.77,7.68L697.67,254l-9.86-27.2"/><path class="cls-1" d="M830.94,206.42a48.75,48.75,0,0,0-4.85,1.54c-3.88,1.47-7.74,3.07-11.48,4.88a53,53,0,0,0-8.76,5.35c-4.7,3.52-9.47,7-13.49,11.33-1.2,1.28-2.32,2.61-3.4,4-2.56,3.26-5.22,6.52-7.49,10-3.55,5.43-6,11.52-8.34,17.53A30.55,30.55,0,0,0,810.7,298.6l17.18-2.76A30.46,30.46,0,0,0,841.35,288a22.82,22.82,0,0,0,6.32-9.83,23,23,0,0,0,2.63-11.76A30.45,30.45,0,0,0,846.13,251c-3.53-7.85-7.29-15.67-12.12-22.82-2.61-3.84-5.5-7.5-8.42-11.11a54.09,54.09,0,0,0-4-4.44A97.51,97.51,0,0,0,811.07,204a36.69,36.69,0,0,0-4.79-3.11,76,76,0,0,0-12.53-5.33c-4.57-1.49-9.52-1.9-14.23-2.42a35.7,35.7,0,0,0-7.87.05,103,103,0,0,0-15.49,2.55c-7.63,2.08-14.94,5.45-22.14,8.63-5.27,2.33-10.51,4.71-15.76,7.07l-36,16.16,44.86,18.25-9.86-27.2a23,23,0,0,0-5.46-10.39,23.16,23.16,0,0,0-8.57-7.86,22.83,22.83,0,0,0-11.36-3.63,23.26,23.26,0,0,0-12.18.55l-7.29,3.08a30.7,30.7,0,0,0-11,11l-3.08,7.29a30.86,30.86,0,0,0,0,16.24l9.86,27.2a30.5,30.5,0,0,0,7.86,13.48,34,34,0,0,0,21.59,8.94,30.3,30.3,0,0,0,15.42-4.17l27.8-12.48c9.12-4.09,18.19-8.34,27.39-12.23L761,258.7a72.32,72.32,0,0,1,18.11-5.44L771,254.35a36.75,36.75,0,0,1,9.43,0l-8.12-1.09a31.89,31.89,0,0,1,7.74,2.15l-7.29-3.08a36,36,0,0,1,7.76,4.63l-6.18-4.78a52.43,52.43,0,0,1,9,9.2l-4.78-6.19c6.22,8.1,10.71,17.36,14.88,26.63l18.25-44.86-17.18,2.76L832,277.27q.27-.7.57-1.41l-3.08,7.3a57.53,57.53,0,0,1,7.41-12.65l-4.77,6.18a57.65,57.65,0,0,1,10-10l-6.18,4.77a54.47,54.47,0,0,1,12-7l-7.3,3.08a50.34,50.34,0,0,1,6.54-2.22,23,23,0,0,0,10.39-5.47,23.11,23.11,0,0,0,7.87-8.57,22.68,22.68,0,0,0,3.62-11.35,23.06,23.06,0,0,0-.55-12.18l-3.07-7.3a30.67,30.67,0,0,0-11-10.95l-7.3-3.08a30.65,30.65,0,0,0-16.24,0Z"/><path class="cls-3" d="M743.28,268.15a111.35,111.35,0,0,1,20.16-55.68A132.8,132.8,0,0,0,718.28,190c-10.1-2.79-20.88-4.32-31.39-.85a37.84,37.84,0,0,0-24.11,25.42,39.11,39.11,0,0,0,2.37,25.95,48.78,48.78,0,0,0,15,18.09c17.86,13.84,41.27,17.87,63.38,10.9"/><path class="cls-3" d="M745.78,268.15a109.23,109.23,0,0,1,13-43.56,103.62,103.62,0,0,1,6.83-10.86c.85-1.19.09-2.67-.9-3.42A135.58,135.58,0,0,0,720.4,188c-8.48-2.45-17.45-4.12-26.29-3a40.31,40.31,0,0,0-20.6,8.83,39.88,39.88,0,0,0-12.45,17.81,40.52,40.52,0,0,0-.1,24.86c4.66,15,17.7,26.26,31.69,32.54a72.55,72.55,0,0,0,45.85,4.42c1.92-.44,3.81-1,5.69-1.55,3.06-.95,1.75-5.78-1.33-4.82A68.32,68.32,0,0,1,700,266.6c-13.13-4.58-26-13.7-32.24-26.43a36.49,36.49,0,0,1-3.22-22.12,34.1,34.1,0,0,1,9.24-17.74,35,35,0,0,1,16.55-9.59c8.11-2,16.57-1.05,24.58.94a129.13,129.13,0,0,1,42.41,19.44c1.64,1.14,3.25,2.32,4.85,3.53l-.9-3.42a112.14,112.14,0,0,0-18.62,43.32,115.83,115.83,0,0,0-1.88,13.62,2.5,2.5,0,0,0,5,0Z"/><path class="cls-3" d="M515.14,207.82a93.42,93.42,0,0,1-20,52.18,159.35,159.35,0,0,0,48,24.25c10.68,3.27,22,5.37,33,2.66s21.53-11.09,24.8-22.93c2.32-8.38.76-17.55-3-25s-9.71-13.4-16.14-18.23a81.27,81.27,0,0,0-66.87-14.19"/><path class="cls-3" d="M512.64,207.82a91.66,91.66,0,0,1-12.52,40.6,83.24,83.24,0,0,1-6.75,9.81,2.56,2.56,0,0,0,.51,3.93,162.42,162.42,0,0,0,45.83,23.64c16,5.23,34.58,8.1,49.37-2a35.37,35.37,0,0,0,13.63-17.21c2.81-7.9,2.19-16.9-.79-24.66-5.84-15.17-20.09-26.12-34.55-32.57a84.5,84.5,0,0,0-47.3-6.39c-2,.3-3.93.68-5.88,1.13-3.13.72-1.8,5.54,1.33,4.82a78.84,78.84,0,0,1,64,13.2,53.7,53.7,0,0,1,15.14,16.06c3.79,6.51,5.78,14.4,4.59,21.93a28.81,28.81,0,0,1-10,17.33A34.39,34.39,0,0,1,571,285.34c-8.67,1-17.35-.6-25.65-3a155.61,155.61,0,0,1-43.85-20.85c-1.72-1.18-3.42-2.38-5.1-3.62l.51,3.93a95.47,95.47,0,0,0,19-40.82,98.5,98.5,0,0,0,1.72-13.13,2.52,2.52,0,0,0-2.5-2.5,2.55,2.55,0,0,0-2.5,2.5Z"/><path class="cls-3" d="M794.07,232.75C789.18,249,784,265.41,775.49,280l24.71,9.35c5,1.9,10.44,3.85,15.64,2.8a17.83,17.83,0,0,0,10.41-7.09A45.93,45.93,0,0,0,832,273.67c1.66-4.38,3.22-9,2.46-13.72-.84-5.21-4.43-9.66-8.42-13.25a55.54,55.54,0,0,0-31.94-13.95"/><path class="cls-3" d="M791.66,232.08c-4.83,16-9.91,32.12-18.33,46.68a2.54,2.54,0,0,0,1.49,3.68l14.46,5.47c4.72,1.78,9.42,3.71,14.21,5.3,4.52,1.5,9.48,2.46,14.16,1.1a20.41,20.41,0,0,0,10.13-7.15c2.92-3.71,4.77-8,6.45-12.41,1.73-4.55,3.36-9.39,2.77-14.33-1.06-8.84-8.36-15.5-15.31-20.28a58.31,58.31,0,0,0-27.62-9.89,2.51,2.51,0,0,0-2.5,2.5,2.56,2.56,0,0,0,2.5,2.5A52.77,52.77,0,0,1,816,242.44a51,51,0,0,1,9.28,7c2.59,2.49,5.06,5.42,6.19,8.89,1.33,4.12.36,8.28-1,12.25A55.36,55.36,0,0,1,825.34,282a17.48,17.48,0,0,1-7.85,7.08c-3.83,1.55-8,.78-11.78-.41-4.87-1.52-9.62-3.52-14.4-5.33l-15.16-5.74,1.5,3.68c8.63-14.93,13.88-31.46,18.83-47.88.93-3.09-3.9-4.41-4.82-1.33Z"/><path class="cls-3" d="M458.73,248.72c3.55-16.65,7.43-33.55,15.07-48.9l-27.9-7.21c-5.69-1.47-11.77-2.94-17.31-1.44a18.76,18.76,0,0,0-10.55,8c-2.42,3.64-3.77,7.79-5,11.92-1.33,4.52-2.52,9.31-1.19,13.93,1.49,5.14,5.88,9.28,10.61,12.53a65.12,65.12,0,0,0,36.26,11.18"/><path class="cls-3" d="M461.14,249.38c3.51-16.47,7.3-33.12,14.82-48.3a2.53,2.53,0,0,0-1.49-3.67c-10.35-2.67-20.68-5.55-31.08-8-5-1.19-10.38-2-15.46-.65A20.64,20.64,0,0,0,417.26,196c-3,3.87-4.81,8.44-6.24,13.11-1.51,5-2.9,10.17-1.85,15.39,1.81,9,10.88,15.09,18.47,19a68.38,68.38,0,0,0,31.09,7.67c3.21,0,3.22-5,0-5A62.67,62.67,0,0,1,433.85,241a61.53,61.53,0,0,1-11.13-6.33,24,24,0,0,1-7.73-8.43c-2-4-1.17-8.55-.05-12.68s2.45-8.59,4.77-12.38a17,17,0,0,1,8-7.11c4.14-1.62,8.7-1.07,12.94-.15,5.41,1.17,10.75,2.7,16.1,4.09l16.36,4.22-1.49-3.67c-7.73,15.59-11.72,32.57-15.34,49.49-.67,3.14,4.15,4.48,4.83,1.33Z"/><path class="cls-1" d="M291.29,173c36.43,18,83.52,55.75,59.43,101C336.45,300.87,303.83,312.56,275,313"/><path class="cls-1" d="M275.88,199.38a182.91,182.91,0,0,1,30.74,19.05l-6.18-4.78A119.64,119.64,0,0,1,322,234.75l-4.78-6.18a73.11,73.11,0,0,1,9.47,15.91l-3.08-7.3a54.72,54.72,0,0,1,3.81,13.63l-1.1-8.12a48.69,48.69,0,0,1,0,12.82l1.09-8.12a53.61,53.61,0,0,1-3.7,13.38l3.08-7.29a62.48,62.48,0,0,1-8,13.75l4.78-6.18a67.47,67.47,0,0,1-11.85,11.73l6.18-4.78a82.55,82.55,0,0,1-18.2,10.47l7.29-3.08a105.66,105.66,0,0,1-26.61,7.12l8.12-1.09a116.36,116.36,0,0,1-13.45,1,23,23,0,0,0-11.77,2.63,27.46,27.46,0,0,0-16.15,16.14A23,23,0,0,0,244.48,313l1.09,8.12a30.65,30.65,0,0,0,7.86,13.48l6.18,4.77A30.45,30.45,0,0,0,275,343.5c3.68-.06,7.36-.28,11-.69,6.31-.71,12.67-1.51,18.89-2.84,10-2.12,19.42-5.83,28.64-10.11a83.22,83.22,0,0,0,9.85-5.4q2.35-1.51,4.59-3.19c3.46-2.6,7-5.2,10.23-8.06a64.31,64.31,0,0,0,7.73-8c3.91-4.84,7.87-9.78,10.85-15.27a100.37,100.37,0,0,0,7.59-17.83c1.87-5.92,2.61-12.26,3.2-18.39a47.92,47.92,0,0,0-.11-10.23c-.72-6-1.37-12-3.23-17.79-.51-1.61-1.11-3.19-1.77-4.75-1.62-3.9-3.17-7.87-5.11-11.64a75.57,75.57,0,0,0-5.45-8.89,140.18,140.18,0,0,0-19-22.1A204.57,204.57,0,0,0,329.59,160a188,188,0,0,0-18.39-11c-1.49-.78-3-1.55-4.49-2.29A22.83,22.83,0,0,0,295.35,143a27.46,27.46,0,0,0-22.56,6,23.1,23.1,0,0,0-7.87,8.57l-3.08,7.3a30.86,30.86,0,0,0,0,16.24l3.08,7.29a30.62,30.62,0,0,0,11,11Z"/><path class="cls-1" d="M100.34,325.05a354.15,354.15,0,0,0,94.42-20.92c23.64-8.76,47.36-20.82,62.67-41.79s19.65-52.81,4.16-73.63c-8.36-11.24-21.38-17.94-34.73-20.24-30.93-5.34-64.15,13.68-76.84,44s-3.66,69.1,20.87,89.72"/><path class="cls-1" d="M100.34,355.6c12.36-1,24.7-2.61,36.94-4.63q14.58-2.4,28.93-6a355.09,355.09,0,0,0,59.93-21,153,153,0,0,0,22-12.08,184.25,184.25,0,0,0,15.95-12.11,93.77,93.77,0,0,0,9-8.62c1.42-1.54,2.77-3.14,4.07-4.79,2.76-3.5,5.6-7,8.1-10.72a71.33,71.33,0,0,0,5.7-10.21,129.6,129.6,0,0,0,7-17.86c1.8-6.32,2.57-12.83,3.36-19.33a65.78,65.78,0,0,0,.41-11.48c-.24-4.55-1-9.11-1.63-13.59a54.39,54.39,0,0,0-1.09-5.52,87.49,87.49,0,0,0-6.79-17.43,44.93,44.93,0,0,0-2.79-4.86,108.56,108.56,0,0,0-8.23-10.76c-4.25-5-9.64-9-14.9-12.71A56.45,56.45,0,0,0,255.72,146c-6.14-2.63-12.1-5.24-18.65-6.6-4.38-.91-8.88-1.41-13.31-1.95-1.84-.22-3.68-.35-5.53-.41a67.28,67.28,0,0,0-10.71.57c-6.19.81-12.3,1.52-18.29,3.28A127,127,0,0,0,172,147.74a76.21,76.21,0,0,0-9.68,5.38,133.79,133.79,0,0,0-14.64,11.21,75.68,75.68,0,0,0-7.74,7.87,127.37,127.37,0,0,0-11.2,15c-3.31,5.37-5.63,11.13-8.06,16.94-3.92,9.37-5.42,19.28-6.46,29.34s.15,20.12,1.79,30.1,5.27,19.15,9.42,28.29a77.85,77.85,0,0,0,5.21,9.64c1,1.59,2.07,3.13,3.19,4.63,2.56,3.43,5.14,6.89,8,10.14a68.28,68.28,0,0,0,7.56,7.46,22.82,22.82,0,0,0,9.83,6.32,23,23,0,0,0,11.76,2.63,23,23,0,0,0,11.77-2.63,22.87,22.87,0,0,0,9.83-6.32l4.78-6.18a30.33,30.33,0,0,0,4.16-15.41l-1.09-8.12a30.52,30.52,0,0,0-7.85-13.48A69.25,69.25,0,0,1,182.39,270l4.78,6.18a78.3,78.3,0,0,1-9.89-17.06l3.08,7.29a85.08,85.08,0,0,1-5.88-21.7l1.09,8.12a83.37,83.37,0,0,1,0-21.81l-1.1,8.12a75.21,75.21,0,0,1,5.14-18.9l-3.07,7.3a72.69,72.69,0,0,1,9.3-15.82l-4.77,6.18a76.61,76.61,0,0,1,13.32-13.31l-6.18,4.78a76.73,76.73,0,0,1,17-9.93l-7.3,3.07a71.52,71.52,0,0,1,17.74-4.87l-8.12,1.09a65.27,65.27,0,0,1,16.93-.08l-8.12-1.09a63.06,63.06,0,0,1,15.85,4.29l-7.29-3.07a56.11,56.11,0,0,1,12.16,7l-6.19-4.77a49,49,0,0,1,8.65,8.62l-4.77-6.18a47.6,47.6,0,0,1,6,10.36l-3.08-7.3a54.36,54.36,0,0,1,3.63,13.6L240.21,212a66,66,0,0,1-.07,17l1.1-8.12A75.37,75.37,0,0,1,236,240l3.08-7.29a74,74,0,0,1-9.48,16.15l4.77-6.18a95.52,95.52,0,0,1-16.85,16.65l6.18-4.77c-10.21,7.87-21.69,13.9-33.55,18.9l7.3-3.07a338.1,338.1,0,0,1-66.86,19.94c-6.65,1.29-13.34,2.37-20.05,3.28l8.12-1.09q-9.14,1.21-18.31,2a23,23,0,0,0-11.77,2.63,22.93,22.93,0,0,0-9.83,6.32,22.89,22.89,0,0,0-6.31,9.83,23,23,0,0,0-2.63,11.76l1.09,8.12a30.52,30.52,0,0,0,7.85,13.48l6.19,4.78a30.44,30.44,0,0,0,15.41,4.17Z"/><path class="cls-3" d="M296.52,221.14c-1.35,18.05-2.92,36.4-7.42,53.64l21.37,3.81c4.36.78,9,1.52,13-.82,3.29-1.91,5.73-5.7,7.24-9.87a61.67,61.67,0,0,0,2.79-13.25c.64-5,1.16-10.17-.2-14.87-1.51-5.21-5.11-9-8.89-11.77a36.18,36.18,0,0,0-27.91-6.87"/><path class="cls-3" d="M294,221.14c-1.33,17.78-2.84,35.66-7.33,53a2.52,2.52,0,0,0,1.74,3.08l14.09,2.51a116.88,116.88,0,0,0,13.13,2.11A15.52,15.52,0,0,0,327,278.28c3-2.57,4.9-6.28,6.2-9.93A64.85,64.85,0,0,0,336,254.88a46,46,0,0,0,.3-13.15c-1.26-8.11-7.2-14.13-14-18.14a38.8,38.8,0,0,0-26.41-4.86,2.51,2.51,0,0,0-1.74,3.07,2.55,2.55,0,0,0,3.07,1.75,32.93,32.93,0,0,1,20.12,3c5.74,2.84,11.62,7.26,13.55,13.66,1.11,3.7.92,7.65.52,11.45a83.57,83.57,0,0,1-1.91,11.78,24.12,24.12,0,0,1-4.28,9.51,10,10,0,0,1-8.28,3.86c-4.28,0-8.61-1.17-12.81-1.92l-14.33-2.56,1.75,3.07c4.6-17.73,6.15-36.09,7.51-54.3a2.52,2.52,0,0,0-2.5-2.5,2.55,2.55,0,0,0-2.5,2.5Z"/><path class="cls-3" d="M247.55,266.53A125.62,125.62,0,0,1,259.76,204a129,129,0,0,0-49.27-15.19c-10.68-1-21.87-.6-32.05,5A41.29,41.29,0,0,0,164,252.14c4.66,7.33,11.11,12.45,17.92,16.23,20.23,11.21,44.63,11,66.08-.49"/><path class="cls-3" d="M250.05,266.53A124.28,124.28,0,0,1,256.66,218a112.91,112.91,0,0,1,5.26-12.66,2.54,2.54,0,0,0-.9-3.42,133,133,0,0,0-50.53-15.53c-8.38-.81-17-.66-25.12,1.88a42.33,42.33,0,0,0-19.07,12.35A45,45,0,0,0,155.87,221a43.91,43.91,0,0,0,2.29,25.11c6.21,15.42,20.57,25.49,36.11,30.16,16.23,4.87,33.69,3.27,49.16-3.42,2-.86,3.92-1.81,5.82-2.82,2.84-1.52.32-5.84-2.52-4.32-13.77,7.34-29.86,10.32-45.26,7.21-14.24-2.89-28.83-10.65-36.25-23.59A39.93,39.93,0,0,1,160.05,227a38.93,38.93,0,0,1,7.28-19.75,38.14,38.14,0,0,1,15.21-12.65c7.2-3.28,15.26-4,23.07-3.62a122.66,122.66,0,0,1,47.19,12.28q2.88,1.4,5.7,2.92l-.9-3.42A127.87,127.87,0,0,0,245,252a123.74,123.74,0,0,0,.08,14.54,2.56,2.56,0,0,0,2.5,2.5,2.51,2.51,0,0,0,2.5-2.5Z"/></g></svg>