<svg xmlns="http://www.w3.org/2000/svg" viewBox="0 0 478.1 301.82"><defs><style>.cls-1{fill:#f1f2f5;}</style></defs><g id="Layer_1" data-name="Layer 1"><path class="cls-1" d="M246.91,81.21a72.17,72.17,0,0,1-4.55,47.73,70.08,70.08,0,0,1-6.1,10.94c-3,4.45-5.85,3.39-11.77,3.33-11.21-.12-22.42-.21-33.63-.21h-5.6c-7.5.44-8,.54-9.31-5.8a138.18,138.18,0,0,1-1.7-43.7c1.25-10.34,3.83-20.89,10.61-29.51s18.51-15,30.51-13.84a33.67,33.67,0,0,1,21.41,11C242,66.94,245.08,74,246.91,81.21Z"/><path class="cls-1" d="M238.15,83.62a76.13,76.13,0,0,1,1.53,7.91l-.33-2.41a71.93,71.93,0,0,1,0,19.11l.33-2.42a76.28,76.28,0,0,1-5.11,18.63l.91-2.17A65.17,65.17,0,0,1,228,135.86l1.42-1.84a9.15,9.15,0,0,1-1.63,1.66l1.84-1.42a6.73,6.73,0,0,1-1.28.73l2.17-.92a7,7,0,0,1-1.62.42l2.42-.32c-2.73.34-5.58,0-8.32-.06L210.65,134q-11.15-.09-22.29-.09c-2.84,0-5.81.44-8.63.1l2.42.32a4.88,4.88,0,0,1-1.14-.28l2.17.91a3,3,0,0,1-.62-.36l1.83,1.42a3.5,3.5,0,0,1-.5-.52l1.42,1.84a4.64,4.64,0,0,1-.49-.87l.91,2.17a22.2,22.2,0,0,1-1.11-4.33q-.8-4-1.35-8.1l.33,2.42a138.78,138.78,0,0,1-.06-36.76l-.32,2.41a71.74,71.74,0,0,1,4.47-17.67l-.91,2.17a45.31,45.31,0,0,1,5.65-9.86L191,70.76a37.88,37.88,0,0,1,6.74-6.71l-1.84,1.42a39.48,39.48,0,0,1,8.45-4.93l-2.17.92A35.62,35.62,0,0,1,211,59.05l-2.42.33a31.36,31.36,0,0,1,8,0l-2.41-.33a33.18,33.18,0,0,1,8.17,2.27l-2.17-.91a36.15,36.15,0,0,1,7.5,4.4l-1.84-1.42a36.69,36.69,0,0,1,6.45,6.49L230.87,68a44.43,44.43,0,0,1,5.45,9.48l-.92-2.17a61.66,61.66,0,0,1,2.75,8.27c1.18,4.6,6.56,7.84,11.17,6.35a9.27,9.27,0,0,0,6.35-11.18c-2.71-10.48-7.91-21-16.52-27.88a45.33,45.33,0,0,0-15.76-8.46,41.18,41.18,0,0,0-18-.8,42.32,42.32,0,0,0-14.73,5.51,44.18,44.18,0,0,0-11.84,10,57.4,57.4,0,0,0-9.22,16.19A69,69,0,0,0,166,87.41a143.36,143.36,0,0,0-1.21,35.72A144.83,144.83,0,0,0,167.47,141c1.11,5,4.08,9.55,9.32,10.81a22.15,22.15,0,0,0,6.24.45c2.18-.11,4.35-.13,6.54-.13q7.32,0,14.65,0l17.55.14c4.34.05,9.44.87,13.59-.67A17.74,17.74,0,0,0,243.7,145a56.78,56.78,0,0,0,4.27-6.95,89.5,89.5,0,0,0,6.81-16.49,82.52,82.52,0,0,0,2.39-35.11,77.33,77.33,0,0,0-1.5-7.69c-1.16-4.61-6.58-7.83-11.18-6.34A9.25,9.25,0,0,0,238.15,83.62Z"/><path class="cls-1" d="M229.5,175c-1.23-2.55-4.61-2-9.43-2.06-5.8,0-11.6.15-17.4.23-4.41.06-14.44-1.8-18.23-.19-7.61,3.24-4.23,20.42-2.38,25.77,1.36,4,3.6,7.9,7.59,10.17,3.6,2,8.11,2.46,12.43,2.72a51.48,51.48,0,0,0,11.84-.31c3.89-.69,7.7-2.28,10.15-5,3-3.3,3.58-7.69,4.05-11.83.62-5.48,1.91-11.21,1.89-16.71A6.5,6.5,0,0,0,229.5,175Z"/><path class="cls-1" d="M237.34,170.45c-3.82-7.25-12.33-6.57-19.26-6.56-6,0-12,.55-17.93.13-4.36-.3-8.8-1.07-13.17-.64-3,.3-5.88.78-8.42,2.55a17.6,17.6,0,0,0-6.45,8.6c-1.54,4-1.71,8.63-1.37,12.87a63.62,63.62,0,0,0,2.1,12.32,37.4,37.4,0,0,0,3,7.43,25.83,25.83,0,0,0,7.58,8.55c5.83,4.34,13.56,4.84,20.56,5.16,7.75.36,16.52-.31,23-5.09A24.63,24.63,0,0,0,232.7,210a23.07,23.07,0,0,0,2.87-6.06c1.2-3.61,1.36-7.5,1.86-11.24l-.32,2.42c.54-4,1.23-8,1.67-12,.18-1.61.3-3.24.32-4.86a18.24,18.24,0,0,0-1.76-7.86c-.84-1.94-3.48-3.64-5.42-4.17a9.09,9.09,0,0,0-11.18,6.34l-.32,2.42a8.88,8.88,0,0,0,1.24,4.58l.11.27-.91-2.17a7.26,7.26,0,0,1,.32,1.3l-.33-2.41a36.56,36.56,0,0,1-.5,8.67l.33-2.42c-.63,4.55-1.29,9.1-1.88,13.65l.32-2.41a26.45,26.45,0,0,1-1.48,6.14l.91-2.17a14.29,14.29,0,0,1-1.79,3.1l1.42-1.84A13.82,13.82,0,0,1,216,201.5l1.84-1.42a18.2,18.2,0,0,1-3.4,2l2.17-.92a25.42,25.42,0,0,1-6.47,1.7l2.42-.32a63.54,63.54,0,0,1-15.22-.32l2.42.32a24.73,24.73,0,0,1-6.17-1.56l2.17.91a15.13,15.13,0,0,1-3.13-1.84l1.84,1.42a16.94,16.94,0,0,1-2.69-2.73l1.42,1.84a22.41,22.41,0,0,1-2.6-4.6l.92,2.17a42.61,42.61,0,0,1-2.61-10.44l.33,2.42a36.89,36.89,0,0,1-.22-9.27l-.32,2.42a16.11,16.11,0,0,1,1-3.88l-.92,2.17a10.13,10.13,0,0,1,1.09-2l-1.42,1.84a8,8,0,0,1,1.19-1.21l-1.84,1.42a6.46,6.46,0,0,1,1.3-.75l-2.17.91a8.5,8.5,0,0,1,2-.5l-2.41.33c5.37-.67,10.74.69,16.11.68,4.26,0,8.52-.18,12.79-.22,2.06,0,4.13,0,6.2,0a37.11,37.11,0,0,1,4.72.11l-2.41-.33a7.31,7.31,0,0,1,1.53.39l-2.17-.92a4.46,4.46,0,0,1,.82.47l-1.84-1.43a5.66,5.66,0,0,1,.49.49L221.27,179a5,5,0,0,1,.39.62,9.16,9.16,0,0,0,12.43,3.26A9.28,9.28,0,0,0,237.34,170.45Z"/><path class="cls-1" d="M256.41,236.39a72.17,72.17,0,0,1,4.31-47.75,71.25,71.25,0,0,1,6-11c3-4.46,5.83-3.4,11.75-3.37,11.21.08,22.42.14,33.63.1h5.6c7.5-.47,8-.58,9.34,5.77a139.79,139.79,0,0,1,2.22,14.78,138.31,138.31,0,0,1-.3,28.91c-1.21,10.34-3.73,20.9-10.46,29.54s-18.44,15-30.45,13.95a33.72,33.72,0,0,1-21.47-10.92C261.35,250.64,258.28,243.57,256.41,236.39Z"/><path class="cls-1" d="M265.17,234a72,72,0,0,1-1.63-8.35l.32,2.42a72.92,72.92,0,0,1,0-18.67l-.33,2.41a76,76,0,0,1,5.2-19.06l-.92,2.17A65.39,65.39,0,0,1,275,181.7l-1.42,1.84a9.8,9.8,0,0,1,1.62-1.66l-1.83,1.42a6.2,6.2,0,0,1,1.27-.74l-2.17.92a7.59,7.59,0,0,1,1.62-.43l-2.42.33c2.73-.36,5.59,0,8.32,0l12.37.07q11.14,0,22.28,0c2.84,0,5.81-.45,8.63-.12l-2.41-.33a4.94,4.94,0,0,1,1.13.29l-2.17-.92a3.55,3.55,0,0,1,.63.36l-1.84-1.42a3.58,3.58,0,0,1,.51.52L317.71,180a5.19,5.19,0,0,1,.57,1l-.92-2.17a28.3,28.3,0,0,1,1.21,4.88c.54,2.76,1,5.54,1.37,8.33l-.32-2.41a138.47,138.47,0,0,1,.05,36.21l.32-2.41a70.39,70.39,0,0,1-4.49,17.66l.91-2.17a44.88,44.88,0,0,1-5.71,9.83l1.42-1.83a37.81,37.81,0,0,1-6.44,6.39l1.84-1.42a38.94,38.94,0,0,1-8.42,4.95l2.17-.91a36,36,0,0,1-8.77,2.43l2.42-.32a32.29,32.29,0,0,1-8,0l2.41.32a33.19,33.19,0,0,1-8.18-2.24l2.17.91a36,36,0,0,1-7.52-4.38l1.84,1.42a36.74,36.74,0,0,1-6.49-6.46l1.42,1.84a44.61,44.61,0,0,1-5.65-9.85l.91,2.17a62.05,62.05,0,0,1-2.62-7.87c-1.21-4.6-6.54-7.85-11.17-6.35a9.26,9.26,0,0,0-6.35,11.18c2.76,10.47,8,21,16.64,27.83a45.18,45.18,0,0,0,15.79,8.41,41,41,0,0,0,18,.76,42.3,42.3,0,0,0,14.71-5.55,44.25,44.25,0,0,0,11.79-10A57.41,57.41,0,0,0,333.79,244a69.64,69.64,0,0,0,3.49-14.09,147.36,147.36,0,0,0-1.72-53.54c-1.13-5-4.09-9.55-9.34-10.79a21.74,21.74,0,0,0-6.23-.44c-2.19.11-4.36.14-6.55.15q-7.32,0-14.64,0c-5.86,0-11.71-.05-17.56-.08-4.33,0-9.44-.84-13.59.71a17.6,17.6,0,0,0-8.32,6.57,53.75,53.75,0,0,0-4.24,7,89.32,89.32,0,0,0-6.74,16.5,84.74,84.74,0,0,0-3.07,17.59,81.59,81.59,0,0,0,.83,17.53,72.15,72.15,0,0,0,1.54,7.69c1.18,4.6,6.56,7.83,11.18,6.34A9.25,9.25,0,0,0,265.17,234Z"/><path class="cls-1" d="M275.69,141.72c1.21,2.56,4.59,2.06,9.41,2.14,5.8.09,11.6-.06,17.4-.09,4.41,0,14.43,1.9,18.23.32,7.65-3.18,4.46-20.38,2.67-25.75-1.32-4-3.52-7.92-7.48-10.23-3.57-2.07-8.07-2.52-12.39-2.81a51,51,0,0,0-11.85.22c-3.89.65-7.72,2.22-10.2,4.9-3,3.27-3.67,7.66-4.18,11.8-.69,5.47-2,11.19-2.09,16.69A6.55,6.55,0,0,0,275.69,141.72Z"/><path class="cls-1" d="M267.85,146.31c3.74,7.26,12.35,6.6,19.24,6.65,6,0,12-.46,17.93,0,4.31.33,8.7,1.12,13,.76,3-.25,6-.76,8.56-2.54a15.9,15.9,0,0,0,5.58-6.4,30.74,30.74,0,0,0,2.41-14.9,63.55,63.55,0,0,0-2-12.47c-1.49-5.45-4.29-11.15-8.78-14.73a26,26,0,0,0-11-5.33,73,73,0,0,0-10.74-1.23c-7.76-.46-16.61,0-23.19,4.69a21.81,21.81,0,0,0-4.63,4.09,25.54,25.54,0,0,0-4.17,7.39c-1.3,3.44-1.53,7.23-2,10.83l.33-2.42c-.58,4.15-1.32,8.26-1.85,12.41a51.07,51.07,0,0,0-.43,5.1,22,22,0,0,0,.38,4.34,15.71,15.71,0,0,0,1.33,3.75c.82,1.94,3.5,3.64,5.43,4.17a9.3,9.3,0,0,0,7-.91,9.18,9.18,0,0,0,4.17-5.43l.33-2.42a9.07,9.07,0,0,0-1.24-4.58l-.12-.27.92,2.17a6.55,6.55,0,0,1-.3-1.31l.32,2.42a34.53,34.53,0,0,1,.47-7.73l-.33,2.41c.64-4.59,1.42-9.15,2-13.75l-.33,2.42a27.76,27.76,0,0,1,1.72-7.08l-.92,2.17a15.47,15.47,0,0,1,1.55-2.67l-1.42,1.84a13.74,13.74,0,0,1,2.17-2.21L287.46,117a17.7,17.7,0,0,1,3.72-2.16l-2.17.91a25.59,25.59,0,0,1,6-1.59l-2.41.33a61.79,61.79,0,0,1,15.25.32l-2.42-.32a26.47,26.47,0,0,1,6.2,1.5l-2.17-.91a15.55,15.55,0,0,1,3.18,1.79l-1.84-1.42a15.86,15.86,0,0,1,2.74,2.69l-1.42-1.84a21.19,21.19,0,0,1,2.63,4.57l-.91-2.17a41.59,41.59,0,0,1,2.56,10.26l-.33-2.42a37.12,37.12,0,0,1,.18,9.82l.33-2.42a16.8,16.8,0,0,1-1,3.88l.91-2.17a9.55,9.55,0,0,1-1.11,1.94l1.42-1.84a7.17,7.17,0,0,1-1.2,1.2l1.83-1.42a6.46,6.46,0,0,1-1.3.75l2.17-.92a8.68,8.68,0,0,1-2,.49l2.42-.33c-5.38.63-10.74-.78-16.11-.81-4.26,0-8.52.11-12.78.12-2.07,0-4.14,0-6.21,0a37.16,37.16,0,0,1-4.72-.14l2.41.32a7.31,7.31,0,0,1-1.53-.39l2.17.91a4,4,0,0,1-.8-.47l1.84,1.42a3.24,3.24,0,0,1-.49-.49l1.42,1.84a4,4,0,0,1-.38-.62c-2.18-4.24-8.46-5.82-12.43-3.26A9.29,9.29,0,0,0,267.85,146.31Z"/></g></svg>