<svg xmlns="http://www.w3.org/2000/svg" viewBox="0 0 1072.04 467.51"><defs><style>.cls-1{fill:#f1f2f5;}.cls-2{fill:#131313;}</style></defs><g id="Layer_1" data-name="Layer 1"><path class="cls-1" d="M689,177.85c-13.9-16.59-2.7-44.37,16.51-54.14s42.19-6.52,63.13-1.58A462.4,462.4,0,0,1,884.27,166.5c38.92,21.3,76.23,50,95,90.5s13.68,94.84-21.06,122.58c-32.8,26.2-79.34,22-120.78,16.52L692.31,376.85a180.63,180.63,0,0,1-76.65,15c-23.65-.6-46.92-5.85-70-11.08l-93.54-21.18C408.88,405.11,333.56,414.91,280.35,382c-3.36-2.08-25.75,6.87-30.41,7.91-10.59,2.38-21.86,5.42-32.72,6.07-19.26,1.15-37.67,7.47-57.07,7.88-15.2.33-30.76-2.47-43.84-10.29s-23.38-21.12-25.53-36.34c-3.6-25.5,26-61.3,53.06-53.84C140.8,269,141,241.05,154,209.1s41.78-58.54,74.39-68.86c31.22-9.87,63.15-12,95.13-5.07L399,151.6c-7.71-35.87,7.47-75.68,37-97s71.68-23,102.76-4.07,49.29,57.45,44.39,93.82l104.26,34.35"/><path class="cls-1" d="M690.87,175.94c-13.42-16.72-.29-41.89,16.64-50.23,24.22-11.92,54.16-3.12,78.57,3.7a459.12,459.12,0,0,1,79.4,30.36C888.2,171,910.36,183.87,930,200c18.53,15.27,34.77,33.54,45.46,55.17a116.2,116.2,0,0,1,11.23,63.63c-2.29,21.1-11.1,41.79-27.09,56.11-18.07,16.18-42.47,21.78-66.13,22.5-25.22.76-50.31-3.27-75.23-6.57l-90-11.94-22.72-3-10.49-1.39c-3.71-.5-6,.9-9.41,2.26a179.21,179.21,0,0,1-41.16,10.83c-29.65,4.12-58.91-.69-87.85-7.1-29.68-6.58-59.31-13.42-89-20.13L457.16,358c-2.8-.63-5.07-1.83-7.39.17-4,3.42-7.48,7.32-11.57,10.63a131.62,131.62,0,0,1-28.15,17.27c-39.46,18-87.92,17.22-125.64-4.81-3.07-1.79-4.75-2.57-8.31-2A70.69,70.69,0,0,0,265.4,382c-8.12,2.57-15.92,5.22-24.23,7.14a160.28,160.28,0,0,1-21.5,3.93c-6.82.61-13.56,1.25-20.32,2.41-14,2.41-27.93,5.77-42.25,5.68-25.37-.17-53.67-11.29-62-37.46-6.26-19.52,5.85-41.11,22-52,7.7-5.2,16.85-8.06,26.07-5.71,1.57.4,3.57-.8,3.41-2.6-2-23.3-2.88-46.88,2.46-69.82,5.06-21.78,14.74-42,30-58.41,32.41-34.81,83.36-45.87,129.32-39.89,15.26,2,30.31,6,45.33,9.24l44.62,9.71a2.74,2.74,0,0,0,3.32-3.32c-8.45-40.81,12.69-85.55,51-102.84,39.39-17.76,87.25-5.15,111.69,30.61a95.51,95.51,0,0,1,16.11,65.66,2.72,2.72,0,0,0,2,2.6l104.27,34.35c3.3,1.09,4.72-4.12,1.43-5.2L583.87,141.71l2,2.6c5.57-43.71-20.49-89-62.29-104a98.89,98.89,0,0,0-66,0,93.54,93.54,0,0,0-49.25,41.24,100.76,100.76,0,0,0-11.84,70.76l3.32-3.32-42.91-9.34c-13.64-3-27.27-6.4-41-8.71a186.57,186.57,0,0,0-78.26,3.83c-21.76,5.71-41.34,16-57.59,31.73-15.88,15.33-26.91,34.31-33.38,55.35-8.17,26.55-7.82,54.1-5.42,81.51l3.41-2.6c-28-7.15-54.77,23.54-56.68,49.46-1.2,16.29,8.73,32,21.23,41.64,15.28,11.78,35.43,15.56,54.35,14.54,10.4-.56,20.63-2.64,30.85-4.55,10.58-2,21.22-2.59,31.83-4.18a182.4,182.4,0,0,0,27-5.89c5.71-1.78,11.31-3.92,17.07-5.6,2.34-.68,5.13-1.77,7.61-1.78,2.72,0,5.27,2.33,7.75,3.67a131.26,131.26,0,0,0,22.51,9.5,143.07,143.07,0,0,0,47.58,6.48c36.71-1.14,72.85-15.9,98.41-42.52l-2.62.69c40.44,9.16,80.8,19.35,121.51,27.2,19.48,3.76,39.27,6.14,59.13,4.82A183.74,183.74,0,0,0,687,382c1.67-.66,3.45-1.79,5.2-2.15,2.22-.44,4.94.36,7.14.65l16.61,2.2,30.59,4.06,61.19,8.11c34.07,4.52,69.22,11.27,103.63,6.47,29.95-4.19,57-19.75,70.74-47.4,12.58-25.31,13.53-55.79,5.47-82.61-9.16-30.52-30.49-56.17-54.87-76-27-22-58.4-38.56-90.4-52a463.51,463.51,0,0,0-54-18.87c-17.06-4.8-34.81-9.54-52.66-9.73-15.24-.17-31.47,3.57-42.42,14.82-8.65,8.89-14.32,21.7-12.93,34.25a30.49,30.49,0,0,0,6.77,16c2.17,2.7,6-1.14,3.81-3.82Z"/><path class="cls-2" d="M493.31,143.38A155.83,155.83,0,0,1,505.9,84.63a71.15,71.15,0,0,0-34.48-13.32c-7.61-.76-15.67-.15-23.33,5.32s-14.84,16.71-16.81,29.74a47.49,47.49,0,0,0,2.87,25.08A35.18,35.18,0,0,0,446,146.32c13.84,10.13,31.38,9.5,47.5-1.69"/><path class="cls-2" d="M501.44,143.38a155,155,0,0,1,1.35-17.88l-.3,2.16a155,155,0,0,1,10.57-39.28l-.82,1.94c.22-.53.45-1.06.68-1.59.87-2,1.53-4.08.82-6.27A9.24,9.24,0,0,0,510,77.6,78.91,78.91,0,0,0,469.09,63a40.67,40.67,0,0,0-22.37,4.87,44.37,44.37,0,0,0-14.66,14.25A57.92,57.92,0,0,0,424,126.29a44.77,44.77,0,0,0,25.57,31.41A47.48,47.48,0,0,0,463,161.33a45,45,0,0,0,11.88-.33,54.34,54.34,0,0,0,22.82-9.34,8.71,8.71,0,0,0,3.74-4.87,8.37,8.37,0,0,0-.82-6.27c-2.25-3.48-7.39-5.5-11.13-2.92a56.55,56.55,0,0,1-9.8,5.45l1.94-.82a45.38,45.38,0,0,1-11.08,3.08l2.16-.29a39,39,0,0,1-9.71,0l2.16.29a37.31,37.31,0,0,1-9.28-2.52l1.94.82a39.51,39.51,0,0,1-8.46-5l1.64,1.27a37,37,0,0,1-6.49-6.44l1.27,1.65a37.38,37.38,0,0,1-4.56-7.8l.82,1.94a44.59,44.59,0,0,1-3-11.19l.29,2.17a51.49,51.49,0,0,1,0-13l-.29,2.17a51.58,51.58,0,0,1,3.45-12.74l-.82,2a49.55,49.55,0,0,1,6.25-10.81l-1.28,1.65a37.2,37.2,0,0,1,6.5-6.59l-1.65,1.27a30.71,30.71,0,0,1,6.66-3.85l-1.94.82a31.56,31.56,0,0,1,7.57-2l-2.16.29a47.8,47.8,0,0,1,11.95.21l-2.16-.29a70.51,70.51,0,0,1,17.91,4.91l-1.95-.82a78,78,0,0,1,14.47,8.16l-2.92-11.13A166.62,166.62,0,0,0,486,129.76q-.72,6.8-.83,13.62c-.07,4.26,3.79,8.33,8.14,8.13a8.28,8.28,0,0,0,8.13-8.13Z"/><path class="cls-2" d="M534.53,100.7c-4,16.55-8.31,33.35-14.35,48.69L534,156c2.83,1.34,5.86,2.68,9,1.08,2.56-1.3,4.88-4.47,6.63-8.12A76.84,76.84,0,0,0,553.83,137c1.3-4.51,2.55-9.27,2.44-13.82a22.46,22.46,0,0,0-4-12.17c-4.59-6.88-10.95-10.58-17.75-10.34"/><path class="cls-2" d="M526.68,98.54c-4,16.43-8.15,32.91-14.35,48.68l-.29,2.17a6.13,6.13,0,0,0,.7,3.13,7.61,7.61,0,0,0,3.33,3.89l10.72,5.09c4.19,2,8.48,4.45,13.26,4.4,10.22-.1,15.66-9.83,18.87-18.18a107.25,107.25,0,0,0,3.39-10.8,53.83,53.83,0,0,0,2.09-12.34c.28-8.35-3.2-16-8.59-22.22a27.75,27.75,0,0,0-21.28-9.79c-4.26.11-8.34,3.66-8.14,8.13.19,4.32,3.58,8.26,8.14,8.14a19.68,19.68,0,0,1,3.07.16l-2.16-.29a19.4,19.4,0,0,1,4.28,1.17l-2-.82a21.6,21.6,0,0,1,4.6,2.68l-1.65-1.28a27,27,0,0,1,4.6,4.65l-1.27-1.65a28.49,28.49,0,0,1,3.45,5.79l-.82-1.94a23.17,23.17,0,0,1,1.58,5.84L548,121a27.39,27.39,0,0,1-.13,6.83l.29-2.17a76.15,76.15,0,0,1-2.34,9.9,86.57,86.57,0,0,1-3.25,9.55l.82-1.94a30.39,30.39,0,0,1-3.63,6.43L541,148a15.89,15.89,0,0,1-2.35,2.43l1.65-1.27a10.3,10.3,0,0,1-1.82,1.11l1.94-.82a9,9,0,0,1-1.69.46l2.16-.29a9,9,0,0,1-2.08,0l2.16.29a15.21,15.21,0,0,1-3.22-1l1.94.82c-5.2-2.28-10.28-4.86-15.41-7.29l3.74,9.19c6.2-15.77,10.33-32.25,14.35-48.68,1-4.13-1.31-9-5.68-10-4.2-1-8.93,1.26-10,5.68Z"/><path class="cls-2" d="M776.26,282.42c-3.41,3.06-6.9,6-10.52,8.85l6.31-4.87a86.45,86.45,0,0,1-19,11.49l7.44-3.14a54.09,54.09,0,0,1-13.34,3.66l8.29-1.12a44,44,0,0,1-11.11,0l8.28,1.12a37.35,37.35,0,0,1-9.06-2.43l7.45,3.14a36.7,36.7,0,0,1-8.13-4.78l6.31,4.88a45.06,45.06,0,0,1-7.67-7.82l4.87,6.31A63.17,63.17,0,0,1,738.52,284l3.14,7.45a95.51,95.51,0,0,1-6.39-24l1.12,8.28a88.41,88.41,0,0,1-.17-23L735.1,261a61.66,61.66,0,0,1,4.13-15.63l-3.14,7.45a44.14,44.14,0,0,1,5.55-9.57l-4.87,6.31a37.62,37.62,0,0,1,6.41-6.45l-6.31,4.87a36.17,36.17,0,0,1,7.67-4.49l-7.45,3.14a38.79,38.79,0,0,1,9.52-2.58l-8.29,1.12a44.78,44.78,0,0,1,11.45,0L741.48,244a50.18,50.18,0,0,1,12.68,3.46l-7.44-3.14A56.19,56.19,0,0,1,759,251.61l-6.31-4.87a82.81,82.81,0,0,1,14.52,14.82l-4.88-6.31c10.33,13.42,17.29,28.93,24.43,44.18,3.75,8,7.59,16,12,23.71,2.06,3.54,4.26,7,6.64,10.34a172.39,172.39,0,0,0,12,15.2,78.82,78.82,0,0,0,8.21,7.93,110.29,110.29,0,0,0,15.12,11.08A91,91,0,0,0,858,375.28c5.78,1.9,12,2.57,18,3.21a42.27,42.27,0,0,0,9.34-.05c5.63-.67,11.41-1.2,16.8-3.08,3.82-1.34,7.56-3,11.22-4.68a40.47,40.47,0,0,0,3.85-2q1.88-1.12,3.62-2.42c3.21-2.39,6.47-4.78,9.47-7.45a49.93,49.93,0,0,0,6.11-6.56c3.43-4.38,6.94-8.66,9.59-13.56q1.08-2,2-4.07c1.64-3.75,3.34-7.53,4.7-11.4a56.77,56.77,0,0,0,2.36-9.07c.73-4.16,1.29-8.37,1.69-12.58.15-1.55.23-3.11.25-4.67a104.64,104.64,0,0,0-1.77-17.4,52.36,52.36,0,0,0-2.53-9.79c-1.48-4-3.16-8-5-11.83q-1.09-2.29-2.39-4.5a121.27,121.27,0,0,0-10.55-14.41,85.29,85.29,0,0,0-7.07-7.65c-2.58-2.48-5.29-4.83-8.09-7.06-4.74-3.79-9.55-7.52-14.53-11a276.15,276.15,0,0,0-40.76-23.54c-8.32-3.91-16.78-7.5-25.18-11.21s-16.75-7.55-25.15-11.26c-19-8.38-38.1-16.57-57.9-22.78q-6.43-2-13-3.74a23.58,23.58,0,0,0-12.43-.55,23.1,23.1,0,0,0-11.59,3.7,23.48,23.48,0,0,0-8.75,8,23.56,23.56,0,0,0-5.58,10.6l-1.11,8.29a31.06,31.06,0,0,0,4.26,15.73l4.87,6.31a31.1,31.1,0,0,0,13.76,8c17.14,4.51,33.75,10.72,50.07,17.6l-7.45-3.14c16.12,6.8,32,14.19,48,21.2,8,3.52,16.08,7.09,23.92,11.06,6.86,3.48,13.48,7.36,20,11.39a222,222,0,0,1,18.81,12.77l-6.31-4.87a100.28,100.28,0,0,1,18.14,17.57l-4.87-6.31a61.16,61.16,0,0,1,7.89,13.3L891.63,284a52.74,52.74,0,0,1,3.61,13.23l-1.11-8.29a56.59,56.59,0,0,1,0,14.88l1.11-8.29a57.09,57.09,0,0,1-3.93,14.35l3.15-7.44a55.17,55.17,0,0,1-7,12l4.88-6.31a49.65,49.65,0,0,1-8.55,8.59l6.31-4.88a43.78,43.78,0,0,1-9.57,5.62l7.45-3.14a41.32,41.32,0,0,1-10.29,2.81l8.29-1.11a43.18,43.18,0,0,1-11.3,0l8.29,1.11a49.06,49.06,0,0,1-12.23-3.39l7.45,3.14a59.65,59.65,0,0,1-12.79-7.6l6.31,4.88a85.82,85.82,0,0,1-14.91-15.2l4.88,6.31c-16.47-21.36-24-47.84-38.1-70.64a165.19,165.19,0,0,0-15.61-21.19c-5.6-6.49-12.15-11.77-19.08-16.8a54.94,54.94,0,0,0-7.57-4.66,98.76,98.76,0,0,0-15.16-6.27,51.75,51.75,0,0,0-8.06-1.77c-5.46-.76-10.91-1.74-16.44-1.44a81.87,81.87,0,0,0-16.26,2.35,37,37,0,0,0-3.82,1.25,104.33,104.33,0,0,0-11.13,4.81,70.15,70.15,0,0,0-12.77,9.3c-3.91,3.39-7,7.74-10,11.84a43.79,43.79,0,0,0-4.17,6.75,104.91,104.91,0,0,0-6,14.47,61,61,0,0,0-2,7.89,149.91,149.91,0,0,0-2.11,16.34,90.47,90.47,0,0,0,.47,16.78c1,8.38,2.1,16.72,4.5,24.82a85.91,85.91,0,0,0,2.89,8.26,144.75,144.75,0,0,0,6.53,14.56,59,59,0,0,0,4.54,7.07c3.12,4.15,6.27,8.55,10.1,12.13a78.8,78.8,0,0,0,12.43,9.55,37.15,37.15,0,0,0,3.29,1.77,96.14,96.14,0,0,0,11.66,4.79,35.58,35.58,0,0,0,4.55,1.13A108.65,108.65,0,0,0,747.29,360c5.9.33,11.94-.71,17.71-1.62a52.09,52.09,0,0,0,9.43-2.45,120,120,0,0,0,15.94-7c8.13-4.37,15.48-10.24,22.58-16.05,2.52-2.06,5-4.2,7.4-6.37a23.4,23.4,0,0,0,6.45-10,28.16,28.16,0,0,0,0-24,23.43,23.43,0,0,0-6.45-10L814,277.55a31,31,0,0,0-15.73-4.26L790,274.4a31.29,31.29,0,0,0-13.76,8Z"/><path class="cls-2" d="M555.38,295.93a34.74,34.74,0,0,0,22-9.13,23.43,23.43,0,0,0,6.45-10,23.5,23.5,0,0,0,2.68-12l-1.11-8.29a31.19,31.19,0,0,0-8-13.76l-6.31-4.87a31.07,31.07,0,0,0-15.74-4.26,34.74,34.74,0,0,0-22,9.13,23.43,23.43,0,0,0-6.45,10,23.4,23.4,0,0,0-2.68,12l1.11,8.29a31.15,31.15,0,0,0,8,13.76l6.31,4.87a31.06,31.06,0,0,0,15.73,4.26Z"/><path class="cls-2" d="M468.37,327.77c3.33,1.65,6.8,3,10.23,4.42,1.06.43,2.13.84,3.22,1.19a38.31,38.31,0,0,0,6.25,1.46c4.56.68,9.33,1.55,14,1.52A96.29,96.29,0,0,0,516,334.79c6.62-1,12.8-3.86,18.86-6.57a59.28,59.28,0,0,0,10.85-6.36,132.06,132.06,0,0,0,16-13.25A134.58,134.58,0,0,0,573,295.42a141.91,141.91,0,0,0,16.26-25.67,170.08,170.08,0,0,0,8-19.42c1.7-5.12,2.89-10.4,5-15.39L599,242.39a30.7,30.7,0,0,1,3.87-6.8L598,241.9a20.78,20.78,0,0,1,3.49-3.46l-6.31,4.87a19,19,0,0,1,3.86-2.22l-7.45,3.14a26,26,0,0,1,6.26-1.62l-8.28,1.12a51.32,51.32,0,0,1,13.16.26l-8.28-1.11A163.05,163.05,0,0,1,630,252.64l-7.45-3.15a92.27,92.27,0,0,1,19.8,11L636,255.58a19.16,19.16,0,0,1,3.1,3.07l-4.88-6.31a15.31,15.31,0,0,1,1.8,3l-3.14-7.44a16.89,16.89,0,0,1,1.13,4.15l-1.11-8.29c1,7.45-1.67,14.84-1.26,22.31.19,3.52.83,7,1.32,10.51.14,1,.3,1.95.5,2.91.39,1.85.88,3.67,1.44,5.47,1.16,3.78,2.55,7.49,3.83,11.23a70.1,70.1,0,0,1,3.35,12.8L641,300.75a29.37,29.37,0,0,1,.08,7.61l1.11-8.29a22.12,22.12,0,0,1-1.49,5.42l3.14-7.45a22,22,0,0,1-2.63,4.47l4.88-6.31a23.8,23.8,0,0,1-4.25,4.2l6.31-4.87a37.14,37.14,0,0,1-8.12,4.59l7.45-3.15a74,74,0,0,1-18.41,4.66l8.29-1.12a115.74,115.74,0,0,1-30,.18l8.29,1.11a102.34,102.34,0,0,1-25.88-7l7.45,3.15A82.18,82.18,0,0,1,579,287.46l6.31,4.87a58.67,58.67,0,0,1-10.2-10.09l4.87,6.31a46.61,46.61,0,0,1-6-10.22l3.14,7.45a54.18,54.18,0,0,1-3.44-13.32l1.11,8.29c-1.33-10.12-.63-20.35-1.32-30.52-.35-5.13-1.09-10.26-1.87-15.33a57.49,57.49,0,0,0-1.6-7.34,106.3,106.3,0,0,0-5.19-13,45.38,45.38,0,0,0-2.84-5.39,111.71,111.71,0,0,0-8.18-11,46.57,46.57,0,0,0-4.22-4.66,113.11,113.11,0,0,0-10.66-8.65,54.2,54.2,0,0,0-5.07-3.42,47.93,47.93,0,0,0-5.44-2.77,111.37,111.37,0,0,0-12.84-5.1,45.35,45.35,0,0,0-6-1.33,109.32,109.32,0,0,0-14-1.6,45.65,45.65,0,0,0-6,.27,113.83,113.83,0,0,0-13.74,2,47.22,47.22,0,0,0-5.58,1.7A116.77,116.77,0,0,0,457.86,180c-5.68,2.9-10.83,7-15.64,11.11s-8.84,9.47-12.65,14.67-6.23,11.25-8.73,17.32a47.91,47.91,0,0,0-3.15,11.39c-.95,6.54-2,12.89-1.32,19.47s1.44,13.23,3.47,19.51c1.39,4.31,3.3,8.49,5.09,12.62q1.19,2.7,2.62,5.28A100.4,100.4,0,0,0,438.94,307a57.09,57.09,0,0,0,8.45,8.07c5.1,4,10,8,15.91,10.7a117.32,117.32,0,0,0,12.52,5.11,23.58,23.58,0,0,0,12.43.56,23.2,23.2,0,0,0,11.59-3.7,23.65,23.65,0,0,0,8.75-8,23.61,23.61,0,0,0,5.58-10.6l1.11-8.29A31,31,0,0,0,511,285.11l-4.88-6.31a31.12,31.12,0,0,0-13.76-8c-1.29-.42-2.56-.9-3.82-1.42l7.45,3.14a50.72,50.72,0,0,1-10.85-6.37l6.31,4.87a57.37,57.37,0,0,1-10.19-10.23l4.87,6.31a60.26,60.26,0,0,1-7.66-13.15l3.15,7.45a56.39,56.39,0,0,1-3.83-13.89l1.12,8.29a48.72,48.72,0,0,1,0-12.88l-1.11,8.28A47.68,47.68,0,0,1,481,239.48l-3.14,7.45a49.26,49.26,0,0,1,6.24-10.68l-4.88,6.31a50.71,50.71,0,0,1,8.91-8.9l-6.31,4.87a49.74,49.74,0,0,1,10.57-6.18L485,235.5a47.36,47.36,0,0,1,11.9-3.28l-8.29,1.12a46.27,46.27,0,0,1,12,0l-8.29-1.11A46.94,46.94,0,0,1,504,235.46l-7.45-3.14a50.35,50.35,0,0,1,10.84,6.34l-6.31-4.88a51.46,51.46,0,0,1,8.91,8.85l-4.88-6.31a48.09,48.09,0,0,1,6.17,10.49l-3.14-7.44a54.33,54.33,0,0,1,3.5,13.63l-1.11-8.28c1.33,10.35.56,20.81,1.36,31.19.4,5.2,1.1,10.39,2,15.52a53.75,53.75,0,0,0,1.81,7.49c.32,1,.69,2,1.08,3,1.32,3.32,2.67,6.66,4.21,9.88a45.24,45.24,0,0,0,2.83,5,118.59,118.59,0,0,0,8.1,10.69,53.25,53.25,0,0,0,3.94,4.29c1.36,1.33,2.79,2.6,4.27,3.8,3.55,2.88,7.17,5.75,11,8.32a81,81,0,0,0,10.48,6,161.2,161.2,0,0,0,18.2,7.51c9.73,3.3,19.85,4.88,30.05,5.94a118,118,0,0,0,20.07.27,192.09,192.09,0,0,0,19.29-2.4A76,76,0,0,0,660,358.58c4.14-1.36,8.16-3.18,12.12-4.92a39.48,39.48,0,0,0,4.49-2.29,82.9,82.9,0,0,0,10-7.46,22.07,22.07,0,0,0,3.2-3.21c2.73-3.39,5.92-7,7.75-11s3.95-8.27,4.66-12.7,1.61-9.14,1.33-13.71a95.1,95.1,0,0,0-1.9-13.85c-1.71-8.17-5.34-15.77-7.46-23.82A45.45,45.45,0,0,1,693.1,260l1.11,8.29c-.63-5.06.19-10.09.8-15.12a46,46,0,0,0,.44-7.23,85.59,85.59,0,0,0-1.4-11.08,16.91,16.91,0,0,0-1-3.54c-1.13-2.8-2.53-7.08-4.54-10s-4.48-6.49-7.33-9a88.91,88.91,0,0,0-13.57-9.84A157.4,157.4,0,0,0,642.8,191a150.51,150.51,0,0,0-16.93-5.21,133.32,133.32,0,0,0-14.82-3c-5.24-.72-10.58-1.64-15.9-1.69a79.6,79.6,0,0,0-15.49,1.69,23.05,23.05,0,0,0-3.29.86,67.18,67.18,0,0,0-10.45,4.44,60.58,60.58,0,0,0-8.78,6.52,21.45,21.45,0,0,0-3,3c-3.5,4.24-6.79,8.35-9,13.37a138.62,138.62,0,0,0-6,15.85A137.13,137.13,0,0,1,534.35,241l3.14-7.44a124,124,0,0,1-15.94,27.24l4.87-6.31a96,96,0,0,1-16.84,17.16l6.31-4.87a62.47,62.47,0,0,1-13.35,8L510,271.6a44.87,44.87,0,0,1-11.47,3.19l8.29-1.11a39.51,39.51,0,0,1-9.84,0l8.29,1.11a40.88,40.88,0,0,1-10.4-2.87l7.45,3.14c-.83-.36-1.65-.74-2.47-1.14a23.2,23.2,0,0,0-11.59-3.7,28,28,0,0,0-23,6.14,23.38,23.38,0,0,0-8,8.74L454,292.56a31.51,31.51,0,0,0,0,16.58l3.15,7.44a31.3,31.3,0,0,0,11.18,11.19Z"/><path class="cls-2" d="M891.37,232.64a92.65,92.65,0,0,0-16.55,6.58,55.1,55.1,0,0,0-8.82,5.5c-4.78,3.63-9.6,7.17-13.67,11.61a104.24,104.24,0,0,0-11.15,14.48c-3.54,5.58-6.06,11.83-8.42,18a31.51,31.51,0,0,0,0,16.58,31.19,31.19,0,0,0,38.35,21.77l17.35-2.85a31.07,31.07,0,0,0,13.75-8,23.4,23.4,0,0,0,6.45-10,23.42,23.42,0,0,0,2.68-12,31,31,0,0,0-4.25-15.74c-3.55-8.07-7.33-16.12-12.2-23.49-2.59-3.92-5.56-7.6-8.45-11.29a59,59,0,0,0-4-4.63,46.4,46.4,0,0,0-4.55-4.1c-3.53-2.78-7.06-5.81-11-8a78.41,78.41,0,0,0-12.6-5.44c-4.59-1.58-9.72-2-14.44-2.53a35.61,35.61,0,0,0-8.06,0,104.87,104.87,0,0,0-15.65,2.57c-7.82,2.15-15.31,5.63-22.68,9-5.3,2.39-10.58,4.84-15.86,7.27L741.2,254.46,787,273.09,777,245a23.36,23.36,0,0,0-5.58-10.6,23.54,23.54,0,0,0-8.74-8,23.23,23.23,0,0,0-11.59-3.7,23.62,23.62,0,0,0-12.44.56l-7.44,3.14a31.3,31.3,0,0,0-11.19,11.18L716.92,245a31.31,31.31,0,0,0,0,16.58l10,28.08a31.1,31.1,0,0,0,8,13.76,23.29,23.29,0,0,0,10,6.44,23.53,23.53,0,0,0,12,2.69,31.07,31.07,0,0,0,15.74-4.26l28.68-13.17c9.4-4.31,18.73-8.84,28.26-12.86l-7.45,3.14a68.53,68.53,0,0,1,17.2-5.11l-8.28,1.11a36.22,36.22,0,0,1,8.95-.06l-8.28-1.11a31.17,31.17,0,0,1,7.8,2.1l-7.45-3.15a35.85,35.85,0,0,1,7.72,4.53l-6.31-4.88a52.42,52.42,0,0,1,9.17,9.36l-4.88-6.31c6.53,8.5,11.15,18.29,15.45,28.05l18.63-45.8L854.54,267l38.35,38.35c.23-.6.46-1.19.71-1.78L890.46,311a59.14,59.14,0,0,1,7.59-13l-4.88,6.31a59.07,59.07,0,0,1,10.47-10.49l-6.31,4.88a54.45,54.45,0,0,1,11.59-6.82L901.48,295a50.86,50.86,0,0,1,6.46-2.24,34.89,34.89,0,0,0,18.64-14.32,23.34,23.34,0,0,0,3.7-11.6,23.69,23.69,0,0,0-.56-12.43L926.58,247a31.33,31.33,0,0,0-11.19-11.19l-7.45-3.14a31.27,31.27,0,0,0-16.57,0Z"/><path class="cls-1" d="M803,296a116.53,116.53,0,0,1,20.35-57.48,132.84,132.84,0,0,0-45.59-23.24c-10.19-2.88-21.07-4.46-31.68-.88a38.74,38.74,0,0,0-24.34,26.24,41.31,41.31,0,0,0,2.4,26.79,50.08,50.08,0,0,0,15.12,18.68c18,14.29,41.66,18.44,64,11.25"/><path class="cls-1" d="M809.21,296c.15-2,.36-3.91.59-5.86.1-.88-.18,1.22,0,.35l.09-.65c.07-.43.13-.86.2-1.3.17-1.08.35-2.16.55-3.23q1.08-5.83,2.74-11.52a120.26,120.26,0,0,1,3.94-11.37c.17-.4.37-.8.5-1.21,0,0-.49,1.13-.2.49.11-.26.23-.53.34-.8.41-.93.83-1.85,1.26-2.77q1.23-2.64,2.61-5.21a110,110,0,0,1,6.92-11.26c1.41-2,1-6-1-7.55a142.29,142.29,0,0,0-46.68-24.37c-8.79-2.6-18.18-4.42-27.36-3.31a46.56,46.56,0,0,0-14.08,3.91,43.14,43.14,0,0,0-9.61,6.26,44.72,44.72,0,0,0-13.56,19.92,46.15,46.15,0,0,0-.33,27.09c4.69,16.42,18.36,29.19,33.52,36.26A76,76,0,0,0,799,305c2-.46,3.94-1,5.87-1.63,3.11-1,5.42-4.37,4.36-7.67-1-3.1-4.34-5.41-7.67-4.35A75,75,0,0,1,790.39,294c-.24,0-1.61.23-.6.09s-.55.06-.8.08c-1,.11-1.9.19-2.86.26-1.89.13-3.79.18-5.69.15s-3.63-.13-5.44-.3l-1.4-.14-.6-.08c-.71-.07.69.1.66.1-.93-.17-1.86-.28-2.78-.45a67.31,67.31,0,0,1-10.66-2.86c-.83-.29-1.64-.6-2.45-.93l-.56-.23c-.77-.31,1.13.5.37.16l-1.29-.58c-1.72-.78-3.4-1.65-5-2.58s-3.17-1.87-4.69-2.91c-.74-.5-1.47-1-2.19-1.54-.23-.17-1.41-1.07-.69-.51s-.44-.35-.63-.51a58.15,58.15,0,0,1-7.8-7.57c-.3-.36-.59-.73-.89-1.1-.73-.89.66.92,0,0s-1.2-1.66-1.75-2.53a41.69,41.69,0,0,1-2.74-4.94c-.18-.37-.32-.79-.52-1.15.82,1.42.1.23-.08-.23-.34-.91-.66-1.84-.94-2.77a53.39,53.39,0,0,1-1.33-5.86c-.13-.7.07.58.07.58A4.81,4.81,0,0,0,727,255c-.05-.51-.1-1-.14-1.53-.07-1-.11-2-.11-3.08s0-1.92.1-2.88c0-.52.09-1,.14-1.56,0-.17.12-.94,0-.06s0-.09,0-.27a36.91,36.91,0,0,1,1.45-5.77c.12-.37.25-.74.39-1.1s.2-.49.29-.73c.23-.65-.27.61-.26.59.42-.8.75-1.64,1.17-2.44a37.21,37.21,0,0,1,2.79-4.55c.22-.3.46-.59.67-.91,0,0-.83,1-.4.52l.48-.58c.55-.67,1.13-1.32,1.73-1.95a38.61,38.61,0,0,1,3.62-3.38c.18-.16.39-.3.57-.46s-1.09.82-.55.42l.87-.64c.72-.51,1.47-1,2.22-1.47a36.52,36.52,0,0,1,4.15-2.19c1.25-.56-1,.4-.08,0l.94-.35c1-.35,1.95-.66,2.94-.92s2.16-.53,3.25-.73a4.76,4.76,0,0,0,1.39-.22s-1.21.13-.49.08c.39,0,.77-.09,1.16-.12a46.72,46.72,0,0,1,6.26-.1c1,.05,2,.12,3,.23l.92.1c.16,0,1,.12.09,0s-.07,0,.09,0l.92.14c2.13.35,4.25.8,6.34,1.32,3.84,1,7.62,2.13,11.34,3.46,1.91.67,3.79,1.39,5.66,2.16l.6.25c.65.26-.49-.21-.49-.21.45.22.93.4,1.39.6l2.76,1.25A135.12,135.12,0,0,1,815,240.09c.79.56,1.57,1.12,2.34,1.69l1.07.8c.26.2,1.82,1.4.5.38l-1-7.56a119.57,119.57,0,0,0-19.16,45.54,132.12,132.12,0,0,0-2,15.09c-.25,3.26,3,6.37,6.23,6.23a6.39,6.39,0,0,0,6.24-6.23Z"/><path class="cls-1" d="M572.68,233.75a97.66,97.66,0,0,1-20.18,53.86,159.34,159.34,0,0,0,48.41,25c10.78,3.37,22.25,5.54,33.33,2.75s21.73-11.45,25-23.68c2.34-8.65.77-18.11-3.08-25.83s-9.79-13.83-16.29-18.81a80.6,80.6,0,0,0-67.5-14.66"/><path class="cls-1" d="M565.77,233.75c-.12,1.84-.28,3.69-.5,5.53,0,.28-.26,2-.09.77s0,.29-.09.56c-.15,1-.31,2-.49,2.95A99.54,99.54,0,0,1,562,254.34q-.79,2.66-1.74,5.25c-.31.87-.63,1.73-1,2.59l-.48,1.18c-.08.19-.38.9,0-.05s-.05.11-.15.35a98.34,98.34,0,0,1-4.93,9.78c-1,1.8-2.15,3.58-3.32,5.31-.54.81-1.09,1.61-1.66,2.39-.32.45-.65.9-1,1.34-.13.17-.26.33-.38.5-.51.68,1.09-1.4.2-.26-1.42,1.81-2.22,3.46-1.91,5.81a7.2,7.2,0,0,0,3.31,5.05,165.75,165.75,0,0,0,47.56,24.93c9.09,3,18.73,5.34,28.37,5.06,8.74-.25,17.51-2.63,24.71-7.69a41.5,41.5,0,0,0,15.56-20c3.14-8.73,2.61-18.94-.52-27.59a56.15,56.15,0,0,0-15.38-22.37A85.37,85.37,0,0,0,628,231.8a87.3,87.3,0,0,0-24.5-7.41,90.71,90.71,0,0,0-26.88.17q-3,.48-6.06,1.2a7,7,0,0,0-4.83,8.5,7.06,7.06,0,0,0,8.51,4.83c1.87-.44,3.76-.82,5.66-1.12l1.42-.22c.77-.12-.91.13-.83.11.27-.05.55-.07.82-.1,1-.11,1.9-.21,2.85-.28a79.08,79.08,0,0,1,11.62-.1c.88.05,1.76.13,2.64.21l1.42.15.81.1c.9.1-1.53-.22-.63-.08,1.88.28,3.76.6,5.62,1A81.46,81.46,0,0,1,616.8,242c.84.31,1.66.63,2.49,1,1.56.63-1.06-.48,0,0,.5.22,1,.44,1.5.67q2.63,1.2,5.15,2.59a80.82,80.82,0,0,1,9.77,6.29,8.27,8.27,0,0,0,.66.51c.05,0-1.18-.94-.6-.46.36.29.74.58,1.1.88.79.64,1.56,1.3,2.32,2,1.42,1.27,2.79,2.6,4.09,4,.61.65,1.2,1.32,1.77,2l.92,1.11.38.49c-1.2-1.46-.47-.6-.21-.25a47.69,47.69,0,0,1,3.16,4.91c.47.86.92,1.74,1.34,2.63.21.46.7,1.95.06.08.18.53.42,1,.61,1.58a39.34,39.34,0,0,1,1.61,5.76c.09.42.16.84.23,1.27a5.19,5.19,0,0,0,.14.85s-.18-1.54-.11-.77c.08,1.07.2,2.14.22,3.22s0,1.87,0,2.8c0,.5-.06,1-.11,1.51,0,.28-.08.57-.1.85,0-.3.24-1.5.06-.56a33.52,33.52,0,0,1-1.45,5.48c-.11.3-.67,1.68-.2.56s-.12.24-.26.52c-.37.78-.78,1.54-1.21,2.28s-.9,1.45-1.39,2.15c-.16.23-1.09,1.47-.32.48s-.32.37-.49.57a34.57,34.57,0,0,1-3.55,3.61c-.32.27-.64.55-1,.81l-.42.34c-.53.44.7-.59.69-.53-.06.39-1.89,1.33-2.21,1.54a35.41,35.41,0,0,1-4.35,2.41,4.51,4.51,0,0,0-1.12.5c0,.05,1.49-.6.84-.36l-.65.26c-.76.28-1.53.54-2.3.78s-1.76.48-2.65.68c-.54.12-1.08.23-1.63.32q-.35.07-.69.12c-.51.08-1.53,0,.21,0-2.18,0-4.34.36-6.54.32-1,0-2-.06-3-.14l-1.63-.14-.94-.11c-.94-.1.08,0,.44.07-4.34-.86-8.62-1.63-12.88-2.9-4-1.2-8-2.58-11.92-4.11L590,301.36l-.81-.34s1.35.58.64.27l-1.61-.7c-1.88-.83-3.75-1.69-5.59-2.59a161.73,161.73,0,0,1-21.56-12.68q-2.56-1.8-5.06-3.68l1.4,10.86a104.1,104.1,0,0,0,20.35-44.21,114.69,114.69,0,0,0,1.86-14.54c.23-3.62-3.34-7.08-6.92-6.92a7.07,7.07,0,0,0-6.91,6.92Z"/><path class="cls-1" d="M854.24,259.48c-4.94,16.75-10.19,33.72-18.76,48.81l24.95,9.65c5.09,2,10.53,4,15.78,2.89,4.3-.88,7.93-3.79,10.51-7.32a47.67,47.67,0,0,0,5.78-11.79c1.67-4.51,3.25-9.32,2.48-14.16-.85-5.37-4.48-10-8.5-13.68a55.47,55.47,0,0,0-32.24-14.4"/><path class="cls-1" d="M848.46,257.89c-2.45,8.33-5,16.65-7.94,24.81q-1.08,3-2.27,6c-.39,1-.78,2-1.2,2.95l-.29.66c-.19.42-.37.83-.55,1.25-1.79,4-3.74,7.92-5.9,11.73a5.9,5.9,0,0,0-.3,5.33,6.19,6.19,0,0,0,3.88,3.47l14.78,5.72c4.78,1.85,9.53,3.86,14.38,5.49,5.15,1.72,11,2.67,16.24,1a25.37,25.37,0,0,0,12.37-9.37c3-4,4.82-8.71,6.54-13.33,1.83-4.91,3.43-10.18,2.84-15.49-1.16-10.43-9-18.14-17.21-23.88a61.45,61.45,0,0,0-29.59-10.66c-3.13-.29-6.13,3-6,6,.15,3.5,2.63,5.67,6,6,.47,0,1,.09,1.42.15,1.55.18-.86-.16.23,0s2,.34,3,.56a54.88,54.88,0,0,1,5.75,1.56c.91.31,1.82.63,2.71,1l.77.31c.4.16.74.52-.29-.13a12,12,0,0,0,1.51.68,56,56,0,0,1,5.29,2.84,33.77,33.77,0,0,1,5,3.39s-.91-.72-.39-.29l.64.52L881,277c.77.67,1.53,1.36,2.26,2.08s1.33,1.34,2,2.05c.31.35.61.72.91,1.08s.14.6-.19-.25a3.56,3.56,0,0,0,.47.65,25.38,25.38,0,0,1,1.47,2.38c.22.41.41.83.61,1.25.35.72-.39-1.1-.15-.34.08.25.18.5.26.75.14.43.27.88.38,1.33,0,.17.33,1.66.18.84s0,.8,0,1.07c0,.62,0,1.24-.07,1.86-.06,1.14,0,0,0-.2a7.06,7.06,0,0,1-.15.92q-.13.69-.3,1.38c-.29,1.22-.65,2.43-1.05,3.62-.7,2.07-1.51,4.11-2.3,6.15-.25.63.17-.39.18-.42-.1.28-.24.55-.35.81-.21.47-.43.93-.65,1.4-.48,1-1,1.95-1.56,2.89a8.77,8.77,0,0,1-1.67,2.49s.79-.95.33-.45c-.17.18-.33.39-.5.58-.34.39-.7.77-1.07,1.13s-.65.62-1,.91c-.19.17-.41.32-.59.49,0,0,1-.69.44-.36-.83.5-1.61,1-2.47,1.46-.52.26-.59,0,.37-.15a3.86,3.86,0,0,0-.54.19A11.22,11.22,0,0,1,875,315c-.13,0-.82.15-.83.17s1.17-.09.46-.06-1.2.07-1.81.06l-1.6-.09c0-.06,1.21.2.23,0l-.68-.12c-1.15-.23-2.29-.53-3.41-.87-5.1-1.58-10.06-3.74-15-5.67l-15.24-5.9,3.57,8.8c8.88-15.69,14.29-33,19.36-50.24a6.06,6.06,0,0,0-4.18-7.37,6.12,6.12,0,0,0-7.37,4.19Z"/><path class="cls-1" d="M515.74,276c3.59-17.19,7.5-34.63,15.22-50.48l-28.16-7.44c-5.75-1.52-11.88-3-17.48-1.5a19.08,19.08,0,0,0-10.65,8.26c-2.44,3.75-3.81,8-5,12.3-1.34,4.67-2.54,9.61-1.2,14.39,1.5,5.29,5.93,9.57,10.71,12.93A64.72,64.72,0,0,0,515.74,276"/><path class="cls-1" d="M521.64,277.59c1.78-8.55,3.63-17.1,6-25.52q1.73-6.19,3.89-12.26c.73-2,1.51-4,2.32-6,.26-.63.23-.57-.09.19l.37-.84.55-1.26q.77-1.68,1.56-3.33c1.68-3.48.4-7.91-3.65-9-10.53-2.78-21-5.79-31.61-8.31-5.73-1.37-11.91-2.25-17.67-.51a25.44,25.44,0,0,0-12.84,9.42c-3.16,4.16-5,9.26-6.42,14.23-1.69,5.73-3,11.58-1.79,17.54,1,5.13,4.33,9.72,8.09,13.22a57.53,57.53,0,0,0,12.23,8.52,71.74,71.74,0,0,0,33.16,8.38,6.12,6.12,0,0,0,0-12.23,63.69,63.69,0,0,1-6.62-.36l-.86-.1c-.7-.07.57.08.57.08-.56-.11-1.14-.16-1.7-.26-1.13-.18-2.26-.4-3.37-.65-2.1-.46-4.18-1-6.22-1.69q-1.53-.5-3-1.08c-.47-.17-.94-.36-1.4-.55-1-.41.13.09.28.12a5.71,5.71,0,0,1-1-.43,65.3,65.3,0,0,1-11.18-6.5c-.87-.63.15.15.26.21a5.3,5.3,0,0,1-.64-.51c-.37-.3-.73-.6-1.09-.92a31.08,31.08,0,0,1-2.34-2.25c-.32-.34-.62-.7-.93-1.05-.68-.78.14.18.22.31-.13-.22-.32-.42-.47-.63a26.63,26.63,0,0,1-1.57-2.67c-.23-.44-.12-.82.15.4,0-.18-.14-.36-.2-.54a13.44,13.44,0,0,1-.41-1.37c-.08-.31-.13-.62-.2-.93-.26-1.22,0,.15,0,.23-.24-.38-.08-1.4-.08-1.87,0-.63.07-1.25.1-1.87.06-1,0,.22,0,.22a3.87,3.87,0,0,1,.11-.7c.22-1.25.51-2.48.83-3.7.6-2.26,1.26-4.52,2-6.72.17-.5.34-1,.53-1.47.1-.27.22-.55.32-.83.3-.8-.47,1-.1.24.52-1.07,1-2.14,1.62-3.17.26-.42.52-.85.8-1.26s1.31-1.43.15-.28c.67-.66,1.23-1.44,1.92-2.1.37-.35.76-.67,1.14-1s-.49.37-.49.37a6.5,6.5,0,0,0,.63-.44c.42-.29.86-.56,1.3-.81.24-.12,1.34-.51,1.39-.68,0,.11-1.43.5-.38.18l.75-.25a14.74,14.74,0,0,1,1.49-.37,3.18,3.18,0,0,0,.67-.13c-.13.24-1.2.11-.27.05.69-.05,1.37-.09,2.06-.09s1.08,0,1.62.06l.93.08c1,.08-.12-.15-.23,0,.14-.13,1.49.24,1.63.27.7.12,1.4.27,2.1.42,5.39,1.2,10.72,2.76,16.06,4.17l16.7,4.42-3.65-9c-8,16.43-12.13,34.17-15.84,51.94-.65,3.13.91,6.76,4.27,7.53,3.07.69,6.83-.93,7.53-4.28Z"/><path class="cls-2" d="M331,224.68a241.78,241.78,0,0,1,33.62,21.18L358.33,241a115.62,115.62,0,0,1,20.91,20.38l-4.87-6.31a72,72,0,0,1,9.26,15.63l-3.15-7.44a57.27,57.27,0,0,1,3.95,14.41l-1.11-8.29a57.73,57.73,0,0,1-.05,14.8l1.11-8.29a54.25,54.25,0,0,1-3.63,13.6l3.14-7.45a54.59,54.59,0,0,1-7,12l4.88-6.31a67.13,67.13,0,0,1-11.95,11.81l6.31-4.87a92.58,92.58,0,0,1-20.34,11.69l7.45-3.14a119.17,119.17,0,0,1-30.07,8.15l8.29-1.11c-3.7.49-7.42.82-11.15,1a23.52,23.52,0,0,0-12,2.68,28.09,28.09,0,0,0-16.48,16.48,23.52,23.52,0,0,0-2.68,12l1.11,8.29a31.1,31.1,0,0,0,8,13.76l6.31,4.87a31.06,31.06,0,0,0,15.73,4.26q5.29-.19,10.54-.88c6.32-.82,12.63-1.59,18.86-3,10-2.22,19.36-5.93,28.75-10a96.11,96.11,0,0,0,10.13-5.12,138,138,0,0,0,15.32-10.93,88.79,88.79,0,0,0,19.41-21.76c3.39-5.2,5.71-11,8-16.78a52.86,52.86,0,0,0,3-11c1.06-6.55,2.11-13.28,1.82-19.94-.2-4.57-1-9.17-1.62-13.67a53.79,53.79,0,0,0-1.05-5.35c-1.51-6.08-4.13-12-6.72-17.61a67,67,0,0,0-5.47-9.7,130.35,130.35,0,0,0-19.78-23.31,212.77,212.77,0,0,0-24.66-19.17c-6.35-4.29-13-8.22-19.65-11.93q-2.33-1.29-4.65-2.53a23.2,23.2,0,0,0-11.59-3.7,28,28,0,0,0-23,6.14,23.54,23.54,0,0,0-8,8.74l-3.14,7.45a31.51,31.51,0,0,0,0,16.58l3.14,7.44A31.33,31.33,0,0,0,331,224.68Z"/><path class="cls-2" d="M154,386c12.65-1.06,25.29-2.71,37.8-4.84q14.94-2.53,29.61-6.35A351.26,351.26,0,0,0,281.9,353a151.38,151.38,0,0,0,22.23-12.64c9-6.29,17.9-13.25,25.16-21.58,7-8,13.46-16.62,17.71-26.38A131.88,131.88,0,0,0,354,274a132,132,0,0,0,3.28-19.74,70.59,70.59,0,0,0,.3-11.9,106.46,106.46,0,0,0-2.8-19.29,56.09,56.09,0,0,0-1.71-5.53,130.15,130.15,0,0,0-5.28-12.41,47.63,47.63,0,0,0-2.88-5,110.76,110.76,0,0,0-8.34-10.94c-4.35-5.11-9.88-9.22-15.29-13.1a57.33,57.33,0,0,0-10.89-6c-6.23-2.65-12.26-5.31-18.9-6.65A110.48,110.48,0,0,0,272.65,161c-6.34-.16-12.58.85-18.85,1.73a68.79,68.79,0,0,0-10.71,2.4c-1.71.53-3.39,1.12-5.06,1.78-4.11,1.62-8.22,3.31-12.22,5.22a76.79,76.79,0,0,0-9.69,5.55c-8.31,5.62-16.38,12.08-22.76,19.88A130.09,130.09,0,0,0,182.09,213a127.06,127.06,0,0,0-8.16,17.55c-3.86,9.57-5.36,19.81-6.36,30s.21,20.57,1.88,30.78S174.81,311,179,320.47c4.12,9.23,10.06,17.39,16.58,25.08a69.92,69.92,0,0,0,7.56,7.64,23.32,23.32,0,0,0,10,6.44,28.16,28.16,0,0,0,24,0,23.23,23.23,0,0,0,10-6.44l4.88-6.31a31.07,31.07,0,0,0,4.26-15.74l-1.12-8.29a31.07,31.07,0,0,0-8-13.75A71.07,71.07,0,0,1,237.7,299l4.88,6.31a80.4,80.4,0,0,1-10.43-18l3.14,7.45a89.54,89.54,0,0,1-6.09-22.51l1.12,8.29a87.9,87.9,0,0,1,0-23l-1.11,8.29a78.23,78.23,0,0,1,5.31-19.71l-3.15,7.45A75.78,75.78,0,0,1,241,237.06l-4.87,6.31a77.59,77.59,0,0,1,13.79-13.79l-6.31,4.87a77,77,0,0,1,16.85-9.87L253,227.73a70.61,70.61,0,0,1,17.87-4.9l-8.29,1.11a64.1,64.1,0,0,1,16.72,0L271,222.82A62.31,62.31,0,0,1,286.37,227l-7.45-3.14a56.42,56.42,0,0,1,12.45,7.21l-6.31-4.87A49.88,49.88,0,0,1,294,235.1l-4.87-6.31a49.23,49.23,0,0,1,6.18,10.71l-3.14-7.45a57.33,57.33,0,0,1,3.74,14l-1.12-8.29a69.72,69.72,0,0,1,0,18.14l1.11-8.29a79.16,79.16,0,0,1-5.44,19.93l3.14-7.45a76.71,76.71,0,0,1-9.85,16.86l4.87-6.31a98.23,98.23,0,0,1-17.69,17.48l6.31-4.88c-10.49,8-22.26,14.21-34.41,19.35l7.45-3.14a339.58,339.58,0,0,1-66.63,20q-10,1.95-20.05,3.31l8.29-1.12q-8.9,1.2-17.84,1.94a23.53,23.53,0,0,0-12,2.69,28.09,28.09,0,0,0-16.48,16.48,23.4,23.4,0,0,0-2.68,12l1.11,8.29a31.1,31.1,0,0,0,8,13.76l6.31,4.87A31,31,0,0,0,154,386Z"/><path class="cls-1" d="M302.58,294.36a132.21,132.21,0,0,1,12.32-64.51,128.1,128.1,0,0,0-49.73-15.69c-10.79-1.06-22.08-.62-32.35,5.21s-19.35,18-20.93,32.35a44.53,44.53,0,0,0,6.34,27.78,49.32,49.32,0,0,0,18.09,16.76c20.42,11.57,45.05,11.38,66.7-.51"/><path class="cls-1" d="M312.71,294.36a133.2,133.2,0,0,1,.91-25.72l-.36,2.69a132.33,132.33,0,0,1,9.1-33.66l-1,2.42q1.1-2.59,2.31-5.13c1.15-2.39,1.88-5.17,1-7.81A10.39,10.39,0,0,0,320,221.1,141.26,141.26,0,0,0,264.75,204c-9.13-.86-18.73-.51-27.48,2.42a50,50,0,0,0-22.4,14.89c-5.9,7-10.45,15.28-12.23,24.32A53.4,53.4,0,0,0,205,275.31a52.41,52.41,0,0,0,6.87,12.79,55.59,55.59,0,0,0,9.68,10.24,76.25,76.25,0,0,0,25.15,13.34,73.94,73.94,0,0,0,26.85,3.08,85,85,0,0,0,14.53-2.28,87.86,87.86,0,0,0,14.06-5c2-.9,4-1.89,6-2.95,4.66-2.55,6.54-9.36,3.63-13.87A10.34,10.34,0,0,0,297.91,287c-2.34,1.27-4.73,2.43-7.19,3.47l2.42-1a72.88,72.88,0,0,1-18.1,5l2.69-.36a68.07,68.07,0,0,1-17.81,0l2.69.37a66.87,66.87,0,0,1-16.77-4.6l2.42,1a63.8,63.8,0,0,1-13.94-8.08l2.05,1.58a48.84,48.84,0,0,1-8.57-8.55l1.59,2.05a44.47,44.47,0,0,1-5.38-9.21l1,2.42a46.72,46.72,0,0,1-3.24-11.88l.36,2.69a44.33,44.33,0,0,1,0-11l-.36,2.7a43.72,43.72,0,0,1,3.05-11.11l-1,2.42a46.8,46.8,0,0,1,5.82-9.89L228,237.08a44.07,44.07,0,0,1,7.68-7.7L233.66,231a39.84,39.84,0,0,1,8.33-4.85l-2.43,1A46.33,46.33,0,0,1,251.28,224l-2.69.37a80.93,80.93,0,0,1,21,.46l-2.69-.36a128.91,128.91,0,0,1,32.51,8.94l-2.42-1a135.63,135.63,0,0,1,12.77,6.23l-3.64-13.87a144,144,0,0,0-13.8,54.79,131.2,131.2,0,0,0,.09,14.84,10.73,10.73,0,0,0,3,7.16,10.13,10.13,0,0,0,14.33,0,10,10,0,0,0,3-7.16Z"/><path class="cls-1" d="M352,247.5c-1.36,18.63-2.95,37.58-7.49,55.37l21.57,3.94c4.4.8,9.09,1.56,13.14-.85,3.32-2,5.78-5.89,7.31-10.19a65.52,65.52,0,0,0,2.82-13.68c.64-5.11,1.16-10.49-.21-15.34-1.52-5.39-5.15-9.29-9-12.16-8.42-6.34-18.51-8.88-28.17-7.09"/><path class="cls-1" d="M341.74,247.5c-.77,10.54-1.61,21.08-3,31.57l.36-2.73a211.36,211.36,0,0,1-4.48,23.8,10.55,10.55,0,0,0,1,7.91c1.37,2.14,3.54,4.25,6.14,4.72l14.21,2.6c5.18.95,10.47,2.22,15.74,2.47a22.91,22.91,0,0,0,16.88-6.25c3.89-3.68,6.38-8.73,8.05-13.74s2.29-10.47,3-15.76a53.4,53.4,0,0,0,0-15.46c-1.6-10.06-9.08-18-17.48-23.1a45.5,45.5,0,0,0-14.84-5.88,48.27,48.27,0,0,0-18-.06c-2.4.43-4.95,2.69-6.14,4.72a10.26,10.26,0,0,0,3.68,14.05,11.6,11.6,0,0,0,7.92,1c.53-.1,1.07-.18,1.61-.26l-2.73.37a35.5,35.5,0,0,1,8.92,0l-2.73-.37a37.51,37.51,0,0,1,9.13,2.47l-2.46-1a40.3,40.3,0,0,1,8.8,5.12l-2.08-1.61a29.46,29.46,0,0,1,5.06,4.92l-1.6-2.08a22.54,22.54,0,0,1,2.8,4.7l-1-2.46a21.84,21.84,0,0,1,1.44,5.38l-.37-2.73c.59,4.72,0,9.48-.66,14.16l.37-2.73A54.2,54.2,0,0,1,376,294.59l1-2.46a24.83,24.83,0,0,1-3,5.21l1.61-2.08a16.58,16.58,0,0,1-2.59,2.64l2.08-1.61a12.53,12.53,0,0,1-2.33,1.4l2.46-1a13.41,13.41,0,0,1-3.22.9l2.73-.37a22.42,22.42,0,0,1-5.43-.09l2.73.36C368.08,296.9,364,296,360,295.3L347.25,293l7.17,12.63c4.81-19,6.43-38.64,7.85-58.1a10.27,10.27,0,0,0-17.53-7.27,11.39,11.39,0,0,0-3,7.27Z"/></g></svg>